<?xml version="1.0" encoding="UTF-8" standalone="no"?>
<!-- Created with Inkscape (http://www.inkscape.org/) -->

<svg
   xmlns:dc="http://purl.org/dc/elements/1.1/"
   xmlns:cc="http://creativecommons.org/ns#"
   xmlns:rdf="http://www.w3.org/1999/02/22-rdf-syntax-ns#"
   xmlns:svg="http://www.w3.org/2000/svg"
   xmlns="http://www.w3.org/2000/svg"
   xmlns:xlink="http://www.w3.org/1999/xlink"
   xmlns:sodipodi="http://sodipodi.sourceforge.net/DTD/sodipodi-0.dtd"
   xmlns:inkscape="http://www.inkscape.org/namespaces/inkscape"
   width="16"
   height="16"
   viewBox="0 0 16 16"
   version="1.1"
   id="svg5"
   sodipodi:docname="feature-icon.svg"
   inkscape:version="0.92.4 (5da689c313, 2019-01-14)">
  <metadata
     id="metadata37">
    <rdf:RDF>
      <cc:Work
         rdf:about="">
        <dc:format>image/svg+xml</dc:format>
        <dc:type
           rdf:resource="http://purl.org/dc/dcmitype/StillImage" />
        <dc:title />
      </cc:Work>
    </rdf:RDF>
  </metadata>
  <sodipodi:namedview
     pagecolor="#ffffff"
     bordercolor="#666666"
     borderopacity="1"
     objecttolerance="10"
     gridtolerance="10"
     guidetolerance="10"
     inkscape:pageopacity="0"
     inkscape:pageshadow="2"
     inkscape:window-width="1920"
     inkscape:window-height="1054"
     id="namedview35"
     showgrid="true"
     inkscape:zoom="16"
     inkscape:cx="-3.896734"
     inkscape:cy="18.554546"
     inkscape:window-x="0"
     inkscape:window-y="0"
     inkscape:window-maximized="1"
     inkscape:current-layer="svg5"
     inkscape:pagecheckerboard="true"
     fit-margin-top="0"
     fit-margin-left="0"
     fit-margin-right="0"
     fit-margin-bottom="0"
     scale-x="1.52"
     inkscape:snap-page="true"
     inkscape:snap-nodes="true"
     inkscape:snap-bbox="true"
     inkscape:bbox-nodes="true"
     inkscape:snap-bbox-midpoints="true"
     inkscape:bbox-paths="false"
     inkscape:snap-bbox-edge-midpoints="false"
     inkscape:snap-object-midpoints="false"
     inkscape:snap-center="false">
    <inkscape:grid
       type="xygrid"
       id="grid829"
       empspacing="1"
       originx="2.477177e-06"
       originy="0.021668351" />
  </sodipodi:namedview>
  <defs
     id="defs2">
    <linearGradient
       id="linearGradient135126">
      <stop
         style="stop-color:#e93c17;stop-opacity:1"
         offset="0"
         id="stop135122" />
      <stop
         style="stop-color:#ca153e;stop-opacity:1"
         offset="1"
         id="stop135124" />
    </linearGradient>
    <linearGradient
       xlink:href="#linearGradient135126"
       id="linearGradient67977"
       gradientUnits="userSpaceOnUse"
       gradientTransform="matrix(1.0234776,0,0,1.0234774,45.087416,-0.9738076)"
       x1="-7.3441615"
       y1="65.579994"
       x2="-31.127453"
       y2="89.363289" />
    <linearGradient
       xlink:href="#linearGradient135126"
       id="linearGradient70771"
       x1="13.410914"
       y1="89.657997"
       x2="36.958832"
       y2="66.110077"
       gradientUnits="userSpaceOnUse" />
    <linearGradient
       xlink:href="#linearGradient135126"
       id="linearGradient89893"
       gradientUnits="userSpaceOnUse"
       gradientTransform="translate(-4.9571544e-6)"
       x1="36.958832"
       y1="66.110077"
       x2="13.410914"
       y2="89.657997" />
  </defs>
  <g
     id="g911"
     transform="translate(-13.229167,39.559438)"
     style="fill:#000000;fill-opacity:1">
    <g
       id="g5951"
       transform="matrix(1.0337078,0,0,1.0337078,-0.63380292,-107.9122)"
       style="fill:#000000;fill-opacity:1">
      <path
         id="rect1657-4-6-1-4-10-2-6"
         style="fill:#000000;fill-opacity:1;stroke-width:0.04183891;paint-order:markers fill stroke"
         d="m 15.345698,66.110083 c -1.063481,0 -1.934781,0.871291 -1.934781,1.934781 v 11.608695 c 0,0.445594 0.154039,0.856518 0.410009,1.184675 0.354951,0.455058 0.906882,0.750109 1.524772,0.750109 h 11.608696 c 1.063485,0 1.934783,-0.871295 1.934783,-1.934784 V 68.044863 c 0,-0.428082 -0.141644,-0.823421 -0.379778,-1.144998 v -0.0019 c -0.0019,-0.0026 -0.0036,-0.0051 -0.0059,-0.0077 -0.0063,-0.0084 -0.01243,-0.01645 -0.01902,-0.02449 -0.0044,-0.0055 -0.0088,-0.01134 -0.01316,-0.01682 -0.01316,-0.01682 -0.02778,-0.03291 -0.04158,-0.04914 -0.35583,-0.42051 -0.885618,-0.689644 -1.475651,-0.689644 z m 0,0.96739 h 11.608696 c 0.544293,0 0.96739,0.423098 0.96739,0.967391 v 4.836957 H 25.01961 v -1.934784 h -1.93478 v -2.902173 h -1.934785 v 3.869567 h -1.934783 v -1.934784 h -1.934781 v 2.902174 h -2.902174 v -4.836957 c 0,-0.544293 0.423098,-0.967391 0.967391,-0.967391 z m -0.967391,7.739131 h 2.902174 v 2.902175 h 1.934781 v -1.934785 h 1.934783 v 3.869565 h 1.934785 v -2.902176 h 1.93478 v -1.934779 h 1.451087 1.451087 v 4.836955 c 0,0.544293 -0.423097,0.967393 -0.96739,0.967393 H 15.345698 c -0.544293,0 -0.967391,-0.423101 -0.967391,-0.967393 z"
         inkscape:connector-curvature="0" />
    </g>
    <g
       id="g1900"
       transform="translate(0,-52.802861)"
       style="fill:#000000;fill-opacity:1" />
  </g>
</svg>
