<?xml version="1.0" encoding="UTF-8" standalone="no"?>
<svg
   xmlns:dc="http://purl.org/dc/elements/1.1/"
   xmlns:cc="http://creativecommons.org/ns#"
   xmlns:rdf="http://www.w3.org/1999/02/22-rdf-syntax-ns#"
   xmlns:svg="http://www.w3.org/2000/svg"
   xmlns="http://www.w3.org/2000/svg"
   id="svg6"
   viewBox="0 0 21.333 21.333"
   version="1.1"
   fill="#000000"
   height="16"
   width="16">
  <defs
     id="defs10" />
  <metadata
     id="metadata2">
    <rdf:RDF>
      <cc:Work
         rdf:about="">
        <dc:format>image/svg+xml</dc:format>
        <dc:type
           rdf:resource="http://purl.org/dc/dcmitype/StillImage" />
        <dc:title></dc:title>
      </cc:Work>
    </rdf:RDF>
  </metadata>
  <path
     id="path4"
     d="m18.833 10h-1.5v-4c0-1.1-0.9-2-2-2h-4v-1.5c0-1.38-1.12-2.5-2.5-2.5-1.38 0-2.5 1.12-2.5 2.5v1.5h-4c-1.1 0-1.99 0.9-1.99 2v3.8h1.49c1.49 0 2.7 1.21 2.7 2.7 0 1.49-1.21 2.7-2.7 2.7h-1.5v3.8c0 1.1 0.9 2 2 2h3.8v-1.5c0-1.49 1.21-2.7 2.7-2.7 1.49 0 2.7 1.21 2.7 2.7v1.5h3.8c1.1 0 2-0.9 2-2v-4h1.5c1.38 0 2.5-1.12 2.5-2.5 0-1.38-1.12-2.5-2.5-2.5z" />
</svg>
