<?xml version="1.0" encoding="UTF-8" standalone="no"?>
<svg
   xmlns:dc="http://purl.org/dc/elements/1.1/"
   xmlns:cc="http://creativecommons.org/ns#"
   xmlns:rdf="http://www.w3.org/1999/02/22-rdf-syntax-ns#"
   xmlns:svg="http://www.w3.org/2000/svg"
   xmlns="http://www.w3.org/2000/svg"
   style="fill:#000000"
   id="svg6"
   version="1.1"
   width="16"
   viewBox="0 0 21.333333 21.333333"
   height="16">
  <metadata
     id="metadata12">
    <rdf:RDF>
      <cc:Work
         rdf:about="">
        <dc:format>image/svg+xml</dc:format>
        <dc:type
           rdf:resource="http://purl.org/dc/dcmitype/StillImage" />
        <dc:title></dc:title>
      </cc:Work>
    </rdf:RDF>
  </metadata>
  <defs
     id="defs10" />
  <path
     id="path4"
     d="m 18.833333,10 h -1.5 V 6 c 0,-1.1 -0.9,-2 -2,-2 h -4 V 2.4999999 C 11.333333,1.1199999 10.213333,0 8.8333325,0 c -1.38,0 -2.5,1.1199999 -2.5,2.4999999 V 4 h -4 c -1.1,0 -1.99,0.9 -1.99,2 v 3.8 h 1.49 c 1.49,0 2.7,1.21 2.7,2.699999 0,1.49 -1.21,2.7 -2.7,2.7 h -1.5 v 3.8 c 0,1.1 0.9,2 2,2 h 3.8 v -1.5 c 0,-1.49 1.21,-2.7 2.7,-2.7 1.4900005,0 2.7000005,1.21 2.7000005,2.7 v 1.5 h 3.8 c 1.1,0 2,-0.9 2,-2 v -4 h 1.5 c 1.379999,0 2.5,-1.12 2.5,-2.5 C 21.333333,11.12 20.213332,10 18.833333,10 Z" />
</svg>
