<?xml version="1.0" encoding="UTF-8" standalone="no"?>
<svg
   xmlns:dc="http://purl.org/dc/elements/1.1/"
   xmlns:cc="http://creativecommons.org/ns#"
   xmlns:rdf="http://www.w3.org/1999/02/22-rdf-syntax-ns#"
   xmlns:svg="http://www.w3.org/2000/svg"
   xmlns="http://www.w3.org/2000/svg"
   style="fill:#000000"
   id="svg6"
   version="1.1"
   width="16"
   viewBox="0 0 21.333333 21.333333"
   height="16">
  <metadata
     id="metadata12">
    <rdf:RDF>
      <cc:Work
         rdf:about="">
        <dc:format>image/svg+xml</dc:format>
        <dc:type
           rdf:resource="http://purl.org/dc/dcmitype/StillImage" />
        <dc:title></dc:title>
      </cc:Work>
    </rdf:RDF>
  </metadata>
  <defs
     id="defs10" />
  <path
     id="path4"
     d="m 10.666666,13.166666 c 1.66,0 2.99,-1.339999 2.99,-2.999999 l 0.01,-6.0000003 c 0,-1.66 -1.34,-3 -3,-3 -1.6599995,0 -2.9999995,1.34 -2.9999995,3 v 6.0000003 c 0,1.66 1.34,2.999999 2.9999995,2.999999 z m 5.3,-2.999999 c 0,2.999999 -2.539999,5.099999 -5.3,5.099999 -2.7599995,0 -5.2999995,-2.1 -5.2999995,-5.099999 h -1.7 c 0,3.409999 2.72,6.229999 6,6.719999 v 3.28 h 1.9999995 v -3.28 c 3.28,-0.48 6,-3.3 6,-6.719999 z" />
</svg>
