<?xml version="1.0" encoding="UTF-8"?>
<svg width="16" height="16" fill="#000000" version="1.1" viewBox="0 0 21.333 21.333" xmlns="http://www.w3.org/2000/svg" xmlns:cc="http://creativecommons.org/ns#" xmlns:dc="http://purl.org/dc/elements/1.1/" xmlns:rdf="http://www.w3.org/1999/02/22-rdf-syntax-ns#">
<metadata>
<rdf:RDF>
<cc:Work rdf:about="">
<dc:format>image/svg+xml</dc:format>
<dc:type rdf:resource="http://purl.org/dc/dcmitype/StillImage"/>
<dc:title/>
</cc:Work>
</rdf:RDF>
</metadata>
<path d="m10.667 13.167c1.66 0 2.99-1.34 2.99-3l0.01-6c0-1.66-1.34-3-3-3-1.66 0-3 1.34-3 3v6c0 1.66 1.34 3 3 3zm5.3-3c0 3-2.54 5.1-5.3 5.1-2.76 0-5.3-2.1-5.3-5.1h-1.7c0 3.41 2.72 6.23 6 6.72v3.28h2v-3.28c3.28-0.48 6-3.3 6-6.72z"/>
</svg>
