<?xml version="1.0" encoding="UTF-8" standalone="no"?>
<svg
   xmlns:dc="http://purl.org/dc/elements/1.1/"
   xmlns:cc="http://creativecommons.org/ns#"
   xmlns:rdf="http://www.w3.org/1999/02/22-rdf-syntax-ns#"
   xmlns:svg="http://www.w3.org/2000/svg"
   xmlns="http://www.w3.org/2000/svg"
   style="fill:#000000"
   id="svg12"
   version="1.1"
   width="16"
   viewBox="0 0 17.777778 17.777778"
   height="16"
   enable-background="new 0 0 20 20">
  <metadata
     id="metadata18">
    <rdf:RDF>
      <cc:Work
         rdf:about="">
        <dc:format>image/svg+xml</dc:format>
        <dc:type
           rdf:resource="http://purl.org/dc/dcmitype/StillImage" />
        <dc:title></dc:title>
      </cc:Work>
    </rdf:RDF>
  </metadata>
  <defs
     id="defs16" />
  <g
     transform="translate(-1.111111,-1.111111)"
     id="g10">
    <g
       id="g8">
      <path
         id="path6"
         d="M 7,4 V 4.73 C 6.32,4.41 5.6,4.23 4.87,4.23 3.59,4.23 2.31,4.72 1.33,5.69 l 2.12,2.12 h 1.41 l -0.1,1.32 c 0.62,0.62 1.42,0.92 2.23,0.92 0,0 0.01,0 0.01,0 V 12 H 5 v 2.5 C 5,15.33 5.67,16 6.5,16 H 14 c 1.1,0 2,-0.9 2,-2 V 4 Z M 6.99,9.05 C 6.56,9.05 6.15,8.93 5.8,8.69 L 5.95,6.82 H 3.87 L 2.84,5.79 C 3.45,5.43 4.15,5.24 4.87,5.24 c 1.07,0 2.07,0.42 2.83,1.17 l 1.41,1.41 -0.6,0.6 C 8.1,8.82 7.56,9.05 6.99,9.05 Z M 15,14 c 0,0.55 -0.45,1 -1,1 -0.55,0 -1,-0.45 -1,-1 V 12 H 8 V 9.87 C 8.44,9.72 8.86,9.48 9.22,9.13 L 9.82,8.53 12.29,11 H 13 V 10.29 L 8.4,5.7 C 8.28,5.57 8.14,5.48 8,5.37 V 5 h 7 z" />
    </g>
  </g>
</svg>
