<?xml version="1.0" encoding="UTF-8" standalone="no"?>
<svg
   xmlns:dc="http://purl.org/dc/elements/1.1/"
   xmlns:cc="http://creativecommons.org/ns#"
   xmlns:rdf="http://www.w3.org/1999/02/22-rdf-syntax-ns#"
   xmlns:svg="http://www.w3.org/2000/svg"
   xmlns="http://www.w3.org/2000/svg"
   id="svg8"
   viewBox="0 0 17.778 17.778"
   version="1.1"
   fill="#000000"
   enable-background="new 0 0 20 20"
   height="16"
   width="16">
  <defs
     id="defs12" />
  <metadata
     id="metadata2">
    <rdf:RDF>
      <cc:Work
         rdf:about="">
        <dc:format>image/svg+xml</dc:format>
        <dc:type
           rdf:resource="http://purl.org/dc/dcmitype/StillImage" />
        <dc:title></dc:title>
      </cc:Work>
    </rdf:RDF>
  </metadata>
  <g
     id="g6"
     transform="translate(-1.1111 -1.1111)">
    <path
       id="path4"
       d="m7 4v0.73c-0.68-0.32-1.4-0.5-2.13-0.5-1.28 0-2.56 0.49-3.54 1.46l2.12 2.12h1.41l-0.1 1.32c0.62 0.62 1.42 0.92 2.23 0.92h0.01v1.95h-2v2.5c0 0.83 0.67 1.5 1.5 1.5h7.5c1.1 0 2-0.9 2-2v-10zm-0.01 5.05c-0.43 0-0.84-0.12-1.19-0.36l0.15-1.87h-2.08l-1.03-1.03c0.61-0.36 1.31-0.55 2.03-0.55 1.07 0 2.07 0.42 2.83 1.17l1.41 1.41-0.6 0.6c-0.41 0.4-0.95 0.63-1.52 0.63zm8.01 4.95c0 0.55-0.45 1-1 1s-1-0.45-1-1v-2h-5v-2.13c0.44-0.15 0.86-0.39 1.22-0.74l0.6-0.6 2.47 2.47h0.71v-0.71l-4.6-4.59c-0.12-0.13-0.26-0.22-0.4-0.33v-0.37h7z" />
  </g>
</svg>
