<?xml version="1.0" encoding="UTF-8" standalone="no"?>
<svg
   xmlns:dc="http://purl.org/dc/elements/1.1/"
   xmlns:cc="http://creativecommons.org/ns#"
   xmlns:rdf="http://www.w3.org/1999/02/22-rdf-syntax-ns#"
   xmlns:svg="http://www.w3.org/2000/svg"
   xmlns="http://www.w3.org/2000/svg"
   style="fill:#000000"
   id="svg6"
   version="1.1"
   width="16"
   viewBox="0 0 21.333333 21.333333"
   height="16">
  <metadata
     id="metadata12">
    <rdf:RDF>
      <cc:Work
         rdf:about="">
        <dc:format>image/svg+xml</dc:format>
        <dc:type
           rdf:resource="http://purl.org/dc/dcmitype/StillImage" />
        <dc:title></dc:title>
      </cc:Work>
    </rdf:RDF>
  </metadata>
  <defs
     id="defs10" />
  <path
     id="path4"
     d="m 14.166667,12.666666 h -0.79 l -0.28,-0.27 c 0.98,-1.139999 1.57,-2.6199993 1.57,-4.2299993 0,-3.59 -2.91,-6.5000001 -6.5000005,-6.5000001 -3.59,0 -6.5,2.9100001 -6.5,6.5000001 0,3.5899993 2.91,6.4999993 6.5,6.4999993 1.61,0 3.0900005,-0.59 4.2300005,-1.57 l 0.27,0.28 v 0.79 l 5,4.99 1.489999,-1.49 z m -6.0000005,0 c -2.49,0 -4.5,-2.009999 -4.5,-4.4999993 0,-2.49 2.01,-4.5 4.5,-4.5 2.4900005,0 4.5000005,2.01 4.5000005,4.5 0,2.4900003 -2.01,4.4999993 -4.5000005,4.4999993 z" />
</svg>
