<?xml version="1.0" encoding="UTF-8" standalone="no"?>
<!-- Created with Inkscape (http://www.inkscape.org/) -->

<svg
   xmlns:dc="http://purl.org/dc/elements/1.1/"
   xmlns:cc="http://creativecommons.org/ns#"
   xmlns:rdf="http://www.w3.org/1999/02/22-rdf-syntax-ns#"
   xmlns:svg="http://www.w3.org/2000/svg"
   xmlns="http://www.w3.org/2000/svg"
   xmlns:sodipodi="http://sodipodi.sourceforge.net/DTD/sodipodi-0.dtd"
   xmlns:inkscape="http://www.inkscape.org/namespaces/inkscape"
   width="72"
   height="15.999999"
   viewBox="0 0 19.05 4.2333332"
   version="1.1"
   id="svg8"
   inkscape:version="0.92.4 (5da689c313, 2019-01-14)"
   sodipodi:docname="download-button-logos.svg"
   inkscape:export-filename="/home/poppy/tenacity-webpage/images/download-button-logos/download-button-logos.png"
   inkscape:export-xdpi="192"
   inkscape:export-ydpi="192">
  <defs
     id="defs2" />
  <sodipodi:namedview
     id="base"
     pagecolor="#404040"
     bordercolor="#666666"
     borderopacity="1.0"
     inkscape:pageopacity="0"
     inkscape:pageshadow="2"
     inkscape:zoom="11.313708"
     inkscape:cx="41.056244"
     inkscape:cy="12.265966"
     inkscape:document-units="mm"
     inkscape:current-layer="layer4"
     showgrid="true"
     units="px"
     inkscape:snap-global="true"
     inkscape:snap-bbox="true"
     inkscape:bbox-nodes="true"
     inkscape:snap-nodes="true"
     inkscape:snap-others="true"
     inkscape:window-width="1920"
     inkscape:window-height="1054"
     inkscape:window-x="0"
     inkscape:window-y="0"
     inkscape:window-maximized="1"
     fit-margin-top="0"
     fit-margin-left="0"
     fit-margin-right="0"
     fit-margin-bottom="0"
     inkscape:snap-intersection-paths="true"
     inkscape:bbox-paths="false"
     inkscape:object-paths="true"
     inkscape:snap-bbox-midpoints="false"
     inkscape:snap-bbox-edge-midpoints="false"
     inkscape:snap-smooth-nodes="true"
     inkscape:snap-midpoints="true"
     inkscape:snap-object-midpoints="true"
     inkscape:snap-center="true"
     inkscape:snap-page="true"
     inkscape:snap-text-baseline="true">
    <inkscape:grid
       type="xygrid"
       id="grid815"
       empspacing="16"
       color="#ffffff"
       opacity="0.0627451"
       empcolor="#ffffff"
       empopacity="0.1254902"
       originx="2.1166668"
       originy="-2.2252401e-07" />
    <inkscape:grid
       type="xygrid"
       id="grid2022"
       color="#ffffff"
       opacity="0.03137255"
       empcolor="#ffffff"
       empopacity="0.01568627"
       spacingx="0.13229167"
       spacingy="0.13229167"
       empspacing="2" />
  </sodipodi:namedview>
  <metadata
     id="metadata5">
    <rdf:RDF>
      <cc:Work
         rdf:about="">
        <dc:format>image/svg+xml</dc:format>
        <dc:type
           rdf:resource="http://purl.org/dc/dcmitype/StillImage" />
        <dc:title />
      </cc:Work>
    </rdf:RDF>
  </metadata>
  <g
     inkscape:groupmode="layer"
     id="layer6"
     inkscape:label="FreeBSD"
     transform="translate(2.1166668)">
    <path
       inkscape:connector-curvature="0"
       d="m 15.47555,0.79518135 c 0.09178,-0.09178 0.954986,-0.636658 1.150944,-0.439873 0.195958,0.195958 -0.348094,1.05916605 -0.439872,1.15094405 -0.09178,0.09178 -0.32577,0.0074 -0.521728,-0.189343 C 15.468109,1.1209514 15.382946,0.88695835 15.47555,0.79518135 Z m -1.602391,-0.232339 c -0.300138,-0.170326 -0.726781,-0.35967 -0.862381,-0.223243 -0.137253,0.137253 0.05871,0.573818 0.230685,0.87395605 0.152963,-0.26623805 0.370418,-0.49030805 0.631696,-0.65071305 z m 2.454024,0.87561005 c 0.02728,0.09343 0.02232,0.171154 -0.02233,0.215802 -0.167846,0.167846 -0.723474,-0.223243 -0.903722,-0.579606 -0.148829,-0.26706505 -0.09178,-0.44152605 0.123197,-0.40266505 0.04713,-0.02977 0.1017,-0.06284 0.162058,-0.09591 -0.246394,-0.128158 -0.525862,-0.200919 -0.822693,-0.200919 -0.984751,0 -1.78264,0.79788905 -1.78264,1.78264005 0,0.983925 0.797889,1.78264 1.78264,1.78264 0.984752,0 1.78264,-0.797888 1.78264,-1.78264 0,-0.317502 -0.08351,-0.615986 -0.229031,-0.874783 -0.03225,0.05788 -0.06284,0.109968 -0.09012,0.155443 z"
       id="path2-3"
       style="fill:#ffffff;fill-opacity:1;stroke-width:0.26458329" />
  </g>
  <g
     inkscape:groupmode="layer"
     id="layer4"
     inkscape:label="Linux Tux Circle">
    <path
       inkscape:connector-curvature="0"
       style="opacity:1;fill:#ffffff;fill-opacity:1;stroke:none;stroke-width:0.13229164;stroke-linecap:round;stroke-miterlimit:4;stroke-dasharray:none;stroke-opacity:1"
       d="m 12.700001,0.26458298 a 1.8520834,1.8520834 0 0 0 -1.852084,1.85208342 1.8520834,1.8520834 0 0 0 0.642249,1.4010077 c 0.1367,-0.2420488 0.183559,-0.4594615 0.202137,-0.722232 0.01852,-0.4409606 -0.312142,-1.7580117 0.934434,-1.8583535 0.04931,-0.00395 0.09664,-0.00584 0.141993,-0.00575 1.115531,0.00156 1.052805,1.1771 1.045816,1.8110064 -0.0029,0.2617726 0.08736,0.4702352 0.213215,0.662779 A 1.8520834,1.8520834 0 0 0 14.552084,2.1166663 1.8520834,1.8520834 0 0 0 12.700001,0.26458298 Z m 1.32776,3.14053552 a 1.8520834,1.8520834 0 0 1 -0.516735,0.375143 1.8520834,1.8520834 0 0 0 0.516735,-0.375143 z m -2.537595,0.1125556 a 1.8520834,1.8520834 0 0 0 0.297506,0.2094046 1.8520834,1.8520834 0 0 1 -0.297506,-0.2094046 z m 1.426571,-1.609753 c -0.06461,6.586e-4 -0.119196,0.019993 -0.174759,0.062138 -0.05547,0.042228 -0.0949,0.094095 -0.126752,0.1662855 -0.03186,0.072108 -0.04544,0.1431391 -0.04454,0.2259478 v 0.00633 c 4.94e-4,0.023377 0.0021,0.045682 0.0051,0.067331 0.05005,0.011936 0.122515,0.032537 0.179147,0.060771 -0.0038,-0.02239 -0.0055,-0.045438 -0.005,-0.070626 0,-0.00181 4e-6,-0.00338 2.43e-4,-0.0052 0.0016,-0.045767 0.0095,-0.084282 0.02553,-0.1231347 0.01613,-0.038853 0.03547,-0.066772 0.06156,-0.088585 0.02487,-0.020744 0.0489,-0.030287 0.07656,-0.030369 0.0014,0 0.0027,-1.8e-6 0.0041,8.09e-5 0.02947,9.887e-4 0.05401,0.01185 0.07862,0.035804 0.02452,0.023954 0.04148,0.052774 0.05482,0.092861 0.01276,0.038194 0.01851,0.075472 0.0176,0.1190993 0,0.00214 -5.64e-4,0.0037 -5.64e-4,0.00551 -0.0015,0.04552 -0.0094,0.08373 -0.02553,0.122829 -0.01062,0.025929 -0.03917,0.046582 -0.05366,0.064116 0.02001,0.00691 0.03941,0.013333 0.06428,0.022717 0.02485,0.00938 0.05259,0.020409 0.08396,0.033827 0.0091,0.0037 0.01776,0.00758 0.02617,0.011608 0.02477,-0.029963 0.04543,-0.064533 0.06338,-0.1056909 0.03153,-0.07219 0.04585,-0.1429082 0.04519,-0.2259638 -5.76e-4,-0.00214 -5.72e-4,-0.00396 -5.63e-4,-0.00609 -0.0016,-0.080916 -0.01704,-0.1491513 -0.04915,-0.2189543 -0.03276,-0.071613 -0.07344,-0.1228169 -0.129822,-0.1638097 -0.05556,-0.040252 -0.109643,-0.058842 -0.17286,-0.058842 z m -0.863406,0.068649 c -0.0036,0 -0.0071,7.47e-5 -0.01069,2.427e-4 -0.04642,0.00239 -0.08495,0.02149 -0.123151,0.059437 -0.03827,0.037865 -0.06462,0.083956 -0.08438,0.1476682 -0.01968,0.063711 -0.02667,0.1252825 -0.02271,0.1968965 v 5.785e-4 c 0.0043,0.071613 0.01852,0.1322774 0.04519,0.1928611 0.02255,0.051282 0.04831,0.090142 0.08131,0.1210927 0.01515,-0.011195 0.02816,-0.020745 0.0391,-0.02873 0.01712,-0.012512 0.03107,-0.0239 0.05182,-0.039952 -0.0033,-0.0023 -0.0066,-0.00494 -0.01,-0.00781 -0.02,-0.017286 -0.03547,-0.039759 -0.04881,-0.071285 -0.013,-0.030622 -0.02033,-0.060913 -0.02396,-0.097379 0,-0.00149 -3.38e-4,-0.00271 -3.38e-4,-0.00419 -0.0033,-0.037618 -0.0012,-0.070392 0.0067,-0.1037295 0.0079,-0.03342 0.01885,-0.058608 0.03548,-0.078858 0.01671,-0.020332 0.03433,-0.030697 0.05556,-0.032508 0.0019,-1.648e-4 0.0039,-2.426e-4 0.0058,-2.426e-4 0.01894,-1.65e-4 0.03606,0.00708 0.05416,0.022717 0.02,0.017286 0.03524,0.039751 0.04883,0.071607 0.01276,0.030622 0.02041,0.060921 0.02404,0.097058 0,0.00149 -6e-6,0.00271 2.43e-4,0.00419 0.0026,0.027246 0.0022,0.051608 -0.0012,0.075643 0.03474,-0.022966 0.07069,-0.040228 0.115964,-0.055868 0.008,-0.00271 0.01605,-0.00527 0.02436,-0.00766 0.0024,-0.027411 0.0026,-0.055727 7.7e-4,-0.085771 v -5.788e-4 c -0.0039,-0.071614 -0.01818,-0.1322753 -0.04493,-0.1929413 -0.02667,-0.060665 -0.05853,-0.1037122 -0.100675,-0.1373789 -0.03885,-0.031033 -0.0764,-0.04503 -0.118456,-0.045112 z M 12.44738,2.473176 c -0.05111,1.649e-4 -0.0968,0.00922 -0.137716,0.023376 -0.118945,0.040911 -0.197891,0.1262652 -0.247362,0.1731023 l -8.1e-5,8.09e-5 c 0,8.09e-5 -8.1e-5,9.33e-5 -8.1e-5,1.773e-4 -0.0097,0.00922 -0.02222,0.017614 -0.05251,0.039839 -0.03054,0.022307 -0.07632,0.055884 -0.142171,0.1052728 -0.05853,0.043873 -0.07753,0.1010036 -0.05728,0.1679255 0.02017,0.066923 0.08469,0.1441262 0.202732,0.2108836 l 1.77e-4,1.773e-4 2.43e-4,8.09e-5 c 0.07326,0.043051 0.123299,0.1010718 0.180755,0.1472504 0.02873,0.023048 0.05894,0.043638 0.09532,0.059195 0.03638,0.015558 0.07886,0.026084 0.132042,0.029212 0.124789,0.00724 0.216652,-0.030198 0.297732,-0.076624 0.08124,-0.046343 0.150055,-0.1030653 0.229004,-0.1286652 l 1.61e-4,-8.09e-5 1.77e-4,-8.09e-5 c 0.161823,-0.050541 0.277231,-0.1523628 0.313359,-0.2490828 0.01811,-0.048401 0.01753,-0.094344 -0.004,-0.1367358 -0.02165,-0.042393 -0.06584,-0.082716 -0.141077,-0.1135848 l -1.77e-4,-8.08e-5 -2.43e-4,-9.66e-5 C 12.95987,2.6577151 12.891967,2.6529479 12.804631,2.5961507 12.662473,2.5047813 12.545007,2.4727653 12.447381,2.4731769 Z m -0.125079,0.1139225 c 0.0021,-4.05e-5 0.0041,-7.8e-6 0.0062,9.64e-5 0.0099,5.006e-4 0.01936,0.00274 0.02772,0.00738 0.0051,0.00284 0.01068,0.0095 0.0089,0.015081 -0.0053,0.017091 -0.03286,0.014247 -0.04877,0.022444 -0.01397,0.00719 -0.0252,0.022955 -0.0409,0.023409 -0.01499,4.331e-4 -0.03831,-0.00519 -0.04026,-0.020048 -0.0026,-0.019637 0.02609,-0.032114 0.04455,-0.039308 0.01299,-0.00506 0.02797,-0.00876 0.04253,-0.00905 z m 0.248408,0 c 0.01455,2.862e-4 0.02954,0.00399 0.04252,0.00905 0.01845,0.00719 0.04713,0.019671 0.04455,0.039309 -0.0019,0.014864 -0.02527,0.020481 -0.04026,0.020049 -0.0157,-4.536e-4 -0.02692,-0.016216 -0.04089,-0.023409 -0.01591,-0.0082 -0.04347,-0.00535 -0.0488,-0.022444 -0.0017,-0.00557 0.0038,-0.012242 0.0089,-0.01508 0.0083,-0.00465 0.01786,-0.00688 0.02772,-0.00738 0.002,-1.058e-4 0.0041,-1.369e-4 0.0062,-9.65e-5 z m 0.516847,0.2556099 c 0.0021,-6.54e-5 0.0043,3.42e-5 0.0066,3.048e-4 0.03793,0.00442 0.0099,0.044944 -0.04324,0.091302 -0.05311,0.046358 -0.136217,0.1078722 -0.203713,0.1430542 -0.128746,0.067108 -0.279142,0.1484882 -0.439162,0.1484882 -0.159937,0 -0.286278,-0.073923 -0.377153,-0.1459481 -0.04544,-0.035971 -0.08232,-0.071769 -0.110145,-0.097781 -0.04827,-0.038104 -0.04249,-0.091545 -0.02265,-0.089968 0.03324,0.00415 0.03826,0.047915 0.0592,0.067492 0.02831,0.026506 0.0638,0.060825 0.106769,0.094903 0.08593,0.068074 0.20051,0.1343404 0.343985,0.1343404 0.143228,0 0.310435,-0.084086 0.412491,-0.1413339 0.05782,-0.032434 0.131386,-0.090572 0.19143,-0.1346459 0.04307,-0.031612 0.04429,-0.069268 0.07553,-0.070209 z m 0.184613,0.2256905 c -0.0619,0.088242 -0.170633,0.1639641 -0.307523,0.2067678 -8.1e-5,0 -1.59e-4,1.64e-5 -2.43e-4,9.64e-5 -0.06479,0.021073 -0.133099,0.07522 -0.218632,0.1241154 -0.07869,0.045027 -0.173189,0.08455 -0.294356,0.08455 -0.01078,0 -0.02182,-3.391e-4 -0.0331,-9.975e-4 C 12.30077,3.476101 12.222992,3.432882 12.160679,3.382835 12.098539,3.33287 12.050536,3.277897 11.986661,3.2402793 c -8.1e-5,0 -8.1e-5,-1.66e-5 -1.62e-4,-9.65e-5 -0.02181,-0.01243 -0.07079,-0.045512 -0.08511,-0.055884 -0.0091,0.1714737 -0.05293,0.3573083 -0.113455,0.5429403 a 1.8520834,1.8520834 0 0 0 0.912067,0.2415129 1.8520834,1.8520834 0 0 0 0.810946,-0.18844 C 13.41513,3.5380207 13.325754,3.2795891 13.272169,3.0683989 Z"
       id="path1491" />
  </g>
  <g
     inkscape:groupmode="layer"
     id="layer5"
     inkscape:label="Mac"
     style="display:inline"
     transform="translate(2.1166668)">
    <path
       inkscape:connector-curvature="0"
       d="M 7.3896946,3.8196159 C 7.1887754,4.0146026 6.967101,3.9842048 6.7557955,3.8922415 c -0.2246407,-0.093792 -0.4300137,-0.099725 -0.6672632,0 C 5.7930861,4.0197564 5.636276,3.982691 5.4583432,3.8196159 4.4537384,2.7853571 4.6020172,1.2098713 5.7437794,1.1505632 6.020693,1.1653509 6.2145771,1.3036633 6.3776873,1.3151521 6.6201256,1.2658892 6.8521776,1.1246106 7.1116698,1.1431519 7.4234349,1.1683521 7.6566069,1.2914307 7.812297,1.5127376 7.1709865,1.8982658 7.3229753,2.7434705 7.9120216,2.98072 7.7941318,3.2902539 7.6428868,3.5960778 7.3893271,3.8222059 Z m -1.03425,-2.680174 C 6.3254318,0.67977425 6.6979662,0.30165728 7.1265011,0.26458322 7.1854766,0.79468896 6.6445908,1.1913386 6.3554446,1.1394419 Z"
       id="path2"
       style="fill:#ffffff;fill-opacity:1;stroke-width:0.26458326" />
  </g>
  <g
     inkscape:groupmode="layer"
     id="layer3"
     inkscape:label="Windows 10"
     style="display:inline"
     transform="translate(2.1166668)">
    <path
       style="fill:#ffffff;fill-opacity:1;stroke-width:0.26458332"
       d="M 3.96875,0.25820228 1.9617809,0.55098538 V 2.0318068 H 3.96875 Z M 1.7793818,0.58073608 0.26458338,0.78857651 V 2.0445689 H 1.7793818 Z M 0.26458338,2.1989575 V 3.4548672 L 1.7793818,3.6670168 V 2.1989575 Z M 1.9617809,2.2185153 V 3.6908009 L 3.96875,3.9751311 v -1.756616 z"
       id="path894"
       inkscape:connector-curvature="0" />
  </g>
  <g
     inkscape:label="Windows 11"
     inkscape:groupmode="layer"
     id="layer1"
     transform="translate(2.1166668,-292.76665)"
     style="display:none">
    <path
       style="opacity:1;fill:#ffffff;fill-opacity:1;stroke:none;stroke-width:0.49999997;stroke-linecap:round;stroke-miterlimit:4;stroke-dasharray:none;stroke-opacity:1"
       d="M 1,1 V 7.4999989 H 7.5 V 0.99999868 Z m 7.5,-1.32e-6 V 7.4999989 H 15 V 1 Z M 1,8.499999 V 15 H 7.5 V 8.499999 Z m 7.5,0 V 15 H 15 V 8.499999 Z"
       transform="matrix(0.26458333,0,0,0.26458333,0,292.76665)"
       id="path845"
       inkscape:connector-curvature="0"
       sodipodi:nodetypes="cccccccccccccccscccs" />
  </g>
</svg>
