<?xml version="1.0" encoding="UTF-8" standalone="no"?>
<!-- Created with Inkscape (http://www.inkscape.org/) -->

<svg
   xmlns:dc="http://purl.org/dc/elements/1.1/"
   xmlns:cc="http://creativecommons.org/ns#"
   xmlns:rdf="http://www.w3.org/1999/02/22-rdf-syntax-ns#"
   xmlns:svg="http://www.w3.org/2000/svg"
   xmlns="http://www.w3.org/2000/svg"
   xmlns:sodipodi="http://sodipodi.sourceforge.net/DTD/sodipodi-0.dtd"
   xmlns:inkscape="http://www.inkscape.org/namespaces/inkscape"
   width="72"
   height="15.999999"
   viewBox="0 0 19.05 4.2333332"
   version="1.1"
   id="svg8"
   inkscape:version="0.92.4 (5da689c313, 2019-01-14)"
   sodipodi:docname="download-button-logos.svg"
   inkscape:export-filename="/home/poppy/tenacity-webpage/images/download-button-logos/download-button-logos.png"
   inkscape:export-xdpi="192"
   inkscape:export-ydpi="192">
  <defs
     id="defs2" />
  <sodipodi:namedview
     id="base"
     pagecolor="#404040"
     bordercolor="#666666"
     borderopacity="1.0"
     inkscape:pageopacity="0"
     inkscape:pageshadow="2"
     inkscape:zoom="8.0000005"
     inkscape:cx="33.242302"
     inkscape:cy="22.66987"
     inkscape:document-units="mm"
     inkscape:current-layer="layer1"
     showgrid="true"
     units="px"
     inkscape:snap-global="true"
     inkscape:snap-bbox="true"
     inkscape:bbox-nodes="true"
     inkscape:snap-nodes="true"
     inkscape:snap-others="false"
     inkscape:window-width="1920"
     inkscape:window-height="1054"
     inkscape:window-x="0"
     inkscape:window-y="0"
     inkscape:window-maximized="1"
     fit-margin-top="0"
     fit-margin-left="0"
     fit-margin-right="0"
     fit-margin-bottom="0">
    <inkscape:grid
       type="xygrid"
       id="grid815"
       empspacing="16"
       color="#ffffff"
       opacity="0.0627451"
       empcolor="#ffffff"
       empopacity="0.1254902"
       originx="2.1166668"
       originy="-2.2252401e-07" />
  </sodipodi:namedview>
  <metadata
     id="metadata5">
    <rdf:RDF>
      <cc:Work
         rdf:about="">
        <dc:format>image/svg+xml</dc:format>
        <dc:type
           rdf:resource="http://purl.org/dc/dcmitype/StillImage" />
        <dc:title></dc:title>
      </cc:Work>
    </rdf:RDF>
  </metadata>
  <g
     inkscape:groupmode="layer"
     id="layer6"
     inkscape:label="FreeBSD"
     transform="translate(2.1166668)">
    <path
       inkscape:connector-curvature="0"
       d="m 15.47555,0.79518135 c 0.09178,-0.09178 0.954986,-0.636658 1.150944,-0.439873 0.195958,0.195958 -0.348094,1.05916605 -0.439872,1.15094405 -0.09178,0.09178 -0.32577,0.0074 -0.521728,-0.189343 C 15.468109,1.1209514 15.382946,0.88695835 15.47555,0.79518135 Z m -1.602391,-0.232339 c -0.300138,-0.170326 -0.726781,-0.35967 -0.862381,-0.223243 -0.137253,0.137253 0.05871,0.573818 0.230685,0.87395605 0.152963,-0.26623805 0.370418,-0.49030805 0.631696,-0.65071305 z m 2.454024,0.87561005 c 0.02728,0.09343 0.02232,0.171154 -0.02233,0.215802 -0.167846,0.167846 -0.723474,-0.223243 -0.903722,-0.579606 -0.148829,-0.26706505 -0.09178,-0.44152605 0.123197,-0.40266505 0.04713,-0.02977 0.1017,-0.06284 0.162058,-0.09591 -0.246394,-0.128158 -0.525862,-0.200919 -0.822693,-0.200919 -0.984751,0 -1.78264,0.79788905 -1.78264,1.78264005 0,0.983925 0.797889,1.78264 1.78264,1.78264 0.984752,0 1.78264,-0.797888 1.78264,-1.78264 0,-0.317502 -0.08351,-0.615986 -0.229031,-0.874783 -0.03225,0.05788 -0.06284,0.109968 -0.09012,0.155443 z"
       id="path2-3"
       style="fill:#ffffff;fill-opacity:1;stroke-width:0.26458329" />
  </g>
  <g
     inkscape:groupmode="layer"
     id="layer4"
     inkscape:label="Linux Tux"
     style="display:inline"
     transform="translate(2.1166668)">
    <path
       inkscape:connector-curvature="0"
       style="color:#000000;font-style:normal;font-variant:normal;font-weight:normal;font-stretch:normal;font-size:medium;line-height:normal;font-family:'Bitstream Vera Sans';-inkscape-font-specification:'Bitstream Vera Sans';text-indent:0;text-align:start;text-decoration:none;text-decoration-line:none;letter-spacing:normal;word-spacing:normal;text-transform:none;writing-mode:lr-tb;direction:ltr;baseline-shift:baseline;text-anchor:start;display:inline;overflow:visible;visibility:visible;fill:#ffffff;fill-opacity:1;stroke:none;stroke-width:81.7562561;marker:none;enable-background:accumulate"
       d="m 10.661144,0.26458447 c -0.02379,-4.896e-5 -0.0486,9.5466e-4 -0.07447,0.003018 C 9.9327305,0.32026781 10.10616,1.0111219 10.096454,1.2424667 10.084512,1.4116476 10.05021,1.5449737 9.9338541,1.7103685 9.7971534,1.87293 9.6046942,2.136038 9.5135213,2.4099241 c -0.043029,0.1292627 -0.063506,0.2610158 -0.044595,0.3857114 -0.00592,0.0053 -0.011563,0.010862 -0.016925,0.016587 -0.040135,0.042848 -0.069791,0.094765 -0.1028344,0.1297191 -0.030872,0.030795 -0.074855,0.042508 -0.1231908,0.05985 -0.048354,0.017349 -0.1014419,0.042926 -0.1336669,0.104764 0,0 0,1.63e-5 -2.12e-5,3.26e-5 -5.22e-5,9.79e-5 -1.093e-4,1.991e-4 -1.649e-4,3.035e-4 v 0 c -0.029171,0.054487 -0.0205,0.1172316 -0.01159,0.1753636 0.00891,0.058131 0.017929,0.1130639 0.00595,0.1503332 -0.038269,0.1045976 -0.043154,0.1769499 -0.016215,0.2294317 0.026997,0.052591 0.082505,0.075804 0.1452423,0.088907 0.1254737,0.026206 0.2953978,0.019694 0.4293178,0.090673 l 0.01151,-0.021719 -0.011391,0.021784 c 0.1433678,0.074956 0.2887145,0.1015805 0.4046758,0.075094 0.08407,-0.019203 0.152321,-0.069264 0.187371,-0.1462963 0.0907,-4.456e-4 0.190228,-0.03886 0.349659,-0.047638 0.108158,-0.00871 0.243266,0.038408 0.398674,0.029779 0.0041,0.01686 0.0099,0.033077 0.01799,0.048489 8.1e-5,1.632e-4 1.63e-4,3.15e-4 2.43e-4,4.717e-4 0.06024,0.120468 0.172183,0.1755701 0.291475,0.1661557 0.119449,-0.00943 0.246447,-0.07986 0.349106,-0.2020298 l -0.01882,-0.015816 0.01896,0.015641 c 0.09786,-0.1186452 0.260269,-0.1678429 0.367962,-0.2327966 0.05385,-0.032478 0.09754,-0.073145 0.100916,-0.1322107 0.0034,-0.059036 -0.03129,-0.1251959 -0.110984,-0.2136644 0,0 -1.7e-5,-1.63e-5 -1.7e-5,-1.63e-5 -3.2e-5,-3.27e-5 -6.5e-5,-8.16e-5 -9.8e-5,-1.142e-4 -0.02619,-0.029593 -0.03868,-0.084439 -0.0521,-0.1428454 -0.01342,-0.058371 -0.02839,-0.1213367 -0.07631,-0.1621424 v 0 c -9.8e-5,-8.17e-5 -1.92e-4,-1.632e-4 -2.89e-4,-2.432e-4 0,0 0,0 0,0 -0.01907,-0.016619 -0.03889,-0.027899 -0.05885,-0.035477 0.06663,-0.1975969 0.04048,-0.394356 -0.02677,-0.5721577 -0.08254,-0.2182164 -0.226649,-0.4083548 -0.336704,-0.5384262 -0.123189,-0.1553835 -0.243678,-0.3029077 -0.241305,-0.520796 0.0037,-0.33254502 0.03658,-0.94923992 -0.548601,-0.95003848 z m 0.07922,0.51231818 c 0.03321,0 0.06156,0.009733 0.0907,0.0308776 0.02959,0.0214797 0.05092,0.0483689 0.0681,0.085919 0.01687,0.0365954 0.02498,0.0723949 0.02578,0.11487725 0,0.00111 0,0.00206 3.19e-4,0.00318 3.18e-4,0.043596 -0.0072,0.080668 -0.02371,0.1185367 -0.0094,0.021608 -0.02028,0.039744 -0.03326,0.055445 -0.0044,-0.00211 -0.009,-0.00415 -0.01373,-0.0061 v 0 c -0.0329,-0.01409 -0.05813,-0.023057 -0.07917,-0.030355 0.0076,-0.00916 0.01397,-0.020034 0.01956,-0.033622 0.0084,-0.020525 0.01257,-0.040573 0.01337,-0.064439 0,-9.513e-4 3.18e-4,-0.00175 3.18e-4,-0.00286 4.76e-4,-0.022912 -0.0025,-0.042482 -0.0092,-0.0625298 -0.007,-0.0210024 -0.01591,-0.0361172 -0.0288,-0.0486874 -0.01289,-0.0125702 -0.02578,-0.0182973 -0.04121,-0.0187754 -7.2e-4,-4.408e-5 -0.0014,-4.408e-5 -0.0022,-4.408e-5 -0.01452,4.408e-5 -0.02712,0.00502 -0.04017,0.0159412 -0.01368,0.0114567 -0.02387,0.0260933 -0.0323,0.0464595 -0.0084,0.0203654 -0.01257,0.0405728 -0.01336,0.064598 -1.6e-4,9.513e-4 -1.6e-4,0.00175 -1.6e-4,0.0027 -2.75e-4,0.013206 5.65e-4,0.025304 0.0026,0.037052 -0.02971,-0.014801 -0.0577,-0.024892 -0.08397,-0.031146 -0.0015,-0.011361 -0.0024,-0.023084 -0.0026,-0.035342 v -0.00334 c -4.78e-4,-0.0434368 0.0067,-0.0806683 0.02339,-0.11853473 0.01671,-0.0378685 0.03739,-0.0650761 0.06651,-0.0871924 0.02912,-0.0221159 0.05776,-0.0322994 0.09165,-0.0326171 5.3e-4,0 0.0011,0 0.0016,0 z m -0.454487,0.0359838 c 0.02203,5.224e-5 0.04174,0.007415 0.06213,0.0236922 0.02212,0.0176611 0.03882,0.0402543 0.05282,0.0720764 0.014,0.0318221 0.02148,0.0636433 0.02355,0.10119385 v 3.161e-4 c 10e-4,0.01577 8.84e-4,0.030615 -3.63e-4,0.044993 -0.0044,0.00124 -0.0086,0.00258 -0.01281,0.00402 -0.02375,0.00818 -0.04468,0.019318 -0.06293,0.031364 0.0018,-0.012602 0.0021,-0.025388 6.82e-4,-0.039644 -1.6e-4,-7.958e-4 -1.6e-4,-0.00144 -1.6e-4,-0.00223 -0.0019,-0.018934 -0.0059,-0.034845 -0.01257,-0.0509152 -0.0072,-0.0167056 -0.01512,-0.0284808 -0.02562,-0.03755 -0.0095,-0.008222 -0.01851,-0.0119926 -0.0284,-0.0119179 -0.001,0 -0.0021,5.716e-5 -0.0031,1.4362e-4 -0.01114,9.5126e-4 -0.02037,0.006362 -0.02912,0.0170241 -0.0088,0.01066 -0.01448,0.0238663 -0.01862,0.0413678 -0.0041,0.017502 -0.0053,0.034686 -0.0035,0.054415 0,7.952e-4 1.6e-4,0.00144 1.6e-4,0.00223 0.0019,0.019093 0.0057,0.035004 0.01257,0.051075 0.007,0.016548 0.01512,0.028321 0.02562,0.03739 0.0018,0.00152 0.0035,0.00288 0.0052,0.0041 -0.01092,0.00841 -0.01614,0.012282 -0.02509,0.01886 -0.0057,0.00421 -0.01258,0.00923 -0.02052,0.015086 -0.01733,-0.016235 -0.03085,-0.036639 -0.04267,-0.063505 -0.014,-0.031821 -0.02148,-0.063643 -0.02371,-0.1011938 v -3.161e-4 c -0.0021,-0.0375492 0.0016,-0.0698495 0.01193,-0.10326032 0.01034,-0.0334129 0.02419,-0.0575977 0.04423,-0.0774866 0.02005,-0.0198881 0.04026,-0.0299119 0.0646,-0.0311851 0.0019,-1.0447e-4 0.0038,-1.5177e-4 0.0057,-1.4362e-4 z m 0.206701,0.26050695 c 0.0512,-1.978e-4 0.112809,0.016588 0.187396,0.064545 0.04581,0.029794 0.08146,0.032283 0.163555,0.067442 l 9.8e-5,4.41e-5 9.8e-5,3.91e-5 c 0.0395,0.016205 0.06268,0.037328 0.07401,0.059572 0.01133,0.022243 0.0116,0.046364 0.0021,0.071738 -0.01896,0.05075 -0.07948,0.1041587 -0.164405,0.1306789 l -8.2e-5,3.43e-5 -8.2e-5,3.43e-5 c -0.04141,0.013454 -0.07752,0.043164 -0.120087,0.067507 -0.04257,0.024341 -0.09074,0.043974 -0.156236,0.040185 0,-3e-7 0,0 0,0 -0.05576,-0.00325 -0.08909,-0.022179 -0.119228,-0.0464 -0.03014,-0.024221 -0.0564,-0.054651 -0.09486,-0.077233 l -9.8e-5,-5.87e-5 -1.01e-4,-5.87e-5 c -0.06193,-0.035014 -0.09575,-0.075511 -0.106364,-0.1106175 -0.01061,-0.035107 -6.54e-4,-0.065074 0.03008,-0.088107 0.03455,-0.025896 0.05856,-0.043512 0.07455,-0.055245 0.01588,-0.011656 0.02249,-0.016026 0.02755,-0.020883 2.6e-5,-3.92e-5 5.4e-5,-5.55e-5 8e-5,-7.84e-5 0,0 2.1e-5,-3.91e-5 2.1e-5,-3.91e-5 0.02596,-0.024576 0.06735,-0.069351 0.129739,-0.090826 0.02147,-0.00739 0.04543,-0.012161 0.07225,-0.012266 z m 0.358016,0.2117404 c -0.02209,0.00132 -0.04523,0.012692 -0.07218,0.027735 -0.02694,0.015042 -0.05724,0.034284 -0.09008,0.053232 -0.06567,0.037897 -0.141263,0.07414 -0.216389,0.07414 -0.07524,0 -0.135357,-0.03475 -0.180445,-0.07048 -0.02254,-0.017866 -0.04115,-0.035861 -0.05602,-0.049781 -0.0074,-0.00696 -0.01388,-0.012893 -0.01989,-0.017527 -0.006,-0.00463 -0.01091,-0.00923 -0.02097,-0.00923 l -4.82e-4,0.021147 c -7.21e-4,0.00707 -0.0015,0.00685 -0.0012,0.00705 4.69e-4,3.082e-4 0.0028,0.00111 0.0055,0.00321 0.0044,0.00341 0.01056,0.00896 0.01785,0.015781 0.01457,0.013645 0.03393,0.032404 0.05777,0.051293 0.04767,0.037778 0.11397,0.076536 0.197837,0.076536 0.08398,0 0.163443,-0.039255 0.230391,-0.077889 0.03347,-0.019317 0.06388,-0.038601 0.08973,-0.053033 0.02585,-0.014433 0.0476,-0.023484 0.06019,-0.024235 z m 0.07465,0.1005024 c 0.05578,0.2198846 0.185519,0.5374818 0.268906,0.6924751 0.04432,0.082232 0.132502,0.2569454 0.1706,0.467444 0.02414,-7.369e-4 0.05072,0.00277 0.07919,0.010048 0.09961,-0.2582338 -0.08447,-0.5363862 -0.168641,-0.6138494 -0.03398,-0.032975 -0.03562,-0.047751 -0.01877,-0.047052 0.09132,0.080762 0.211215,0.2431995 0.254834,0.4265482 0.01989,0.083603 0.02413,0.1714947 0.0028,0.2582348 0.01044,0.00434 0.02104,0.00905 0.03179,0.014141 0.159892,0.077859 0.219025,0.1455639 0.190593,0.2379684 -0.0094,-3.28e-4 -0.01858,-2.921e-4 -0.02756,-8.16e-5 -8.36e-4,1.64e-5 -0.0017,4.9e-5 -0.0025,6.53e-5 0.02316,-0.073247 -0.02814,-0.1272692 -0.16482,-0.1891118 -0.141767,-0.062371 -0.254734,-0.056166 -0.273828,0.070327 -0.0012,0.00662 -0.0022,0.01338 -0.003,0.020227 -0.01059,0.00368 -0.02124,0.00837 -0.03192,0.014215 -0.06657,0.036425 -0.102902,0.1025161 -0.123111,0.1835777 -0.02019,0.080996 -0.02598,0.1789153 -0.03155,0.2889878 0,1.62e-5 0,3.26e-5 0,4.89e-5 -0.0034,0.055348 -0.02616,0.1302086 -0.04924,0.2094981 -0.232237,0.1656576 -0.554558,0.2374298 -0.828221,0.050666 -0.01855,-0.029339 -0.03982,-0.058407 -0.06172,-0.087077 -0.01398,-0.018309 -0.02835,-0.036505 -0.04263,-0.054446 0.02809,1.63e-5 0.05197,-0.00458 0.07127,-0.013329 0.024,-0.010883 0.04086,-0.028362 0.0492,-0.0508 0.01669,-0.04488 -6.7e-5,-0.10819 -0.05348,-0.1804864 -0.05342,-0.072291 -0.143874,-0.1538792 -0.2767943,-0.2353971 0,0 -2.12e-5,0 -2.12e-5,-1.63e-5 C 9.7890064,2.7977089 9.7343943,2.7232448 9.7088323,2.6423955 9.683268,2.5615392 9.6868524,2.474107 9.7065551,2.3877852 9.7443725,2.2220935 9.8415396,2.060945 9.9035376,1.9598151 c 0.016692,-0.012281 0.00596,0.022797 -0.062763,0.1504233 -0.061595,0.1166861 -0.1767471,0.3859712 -0.019084,0.5961738 0.00421,-0.1495908 0.039938,-0.3021549 0.099911,-0.4448606 0.087355,-0.1980151 0.2700704,-0.5413978 0.2845824,-0.8150786 0.0075,0.00543 0.03319,0.022781 0.04465,0.029296 2.1e-5,3.43e-5 5.1e-5,3.43e-5 7.4e-5,3.92e-5 0.03352,0.019739 0.05869,0.048593 0.0913,0.074797 0.03267,0.026255 0.07348,0.048934 0.135143,0.052526 v 0 c 0.07197,0.00417 0.126824,-0.018127 0.171764,-0.043825 0.04487,-0.025659 0.08072,-0.054056 0.114684,-0.065141 4.9e-5,-3.43e-5 9.8e-5,-3.43e-5 1.47e-4,-4.9e-5 0.07177,-0.022442 0.128826,-0.062164 0.161297,-0.108493 z m 0.45582,1.2588356 c 0.02907,-1.307e-4 0.06428,0.00956 0.102824,0.0268 0.10374,0.047892 0.136199,0.088942 0.107877,0.149245 -0.02387,0.045506 -0.126015,0.1178999 -0.196023,0.098807 -0.07144,-0.018457 -0.106286,-0.1214008 -0.09467,-0.1992052 0.0062,-0.052835 0.03611,-0.075441 0.07999,-0.075647 z m -0.117373,0.1421789 c 0.0059,0.095144 0.05294,0.1921809 0.136188,0.2131823 0.0911,0.024003 0.222452,-0.054163 0.27791,-0.1179202 0.01106,-4.423e-4 0.02187,-9.852e-4 0.03237,-0.00124 0.04865,-0.00117 0.08945,0.00161 0.131136,0.038061 l 1.47e-4,1.306e-4 1.47e-4,1.306e-4 c 0.03204,0.027142 0.04726,0.078434 0.06047,0.1358946 0.01321,0.057461 0.02377,0.1200416 0.06338,0.1646236 l 6.5e-5,6.54e-5 4.9e-5,6.52e-5 c 0.07615,0.084501 0.100622,0.1416162 0.09854,0.1780707 -0.0021,0.036455 -0.02848,0.063519 -0.07722,0.092915 -0.09744,0.058768 -0.27008,0.109871 -0.380352,0.2434422 -0.09575,0.1139488 -0.212512,0.1765313 -0.315339,0.1846467 -0.102826,0.00811 -0.191542,-0.034562 -0.243845,-0.1395392 l -1.15e-4,-2.383e-4 -1.3e-4,-2.334e-4 c -0.03245,-0.061724 -0.01893,-0.1591323 0.0084,-0.2618792 0.02733,-0.1027477 0.06661,-0.2082469 0.07186,-0.2939955 v -1.305e-4 -1.305e-4 c 0.0056,-0.109867 0.01171,-0.2058134 0.03017,-0.2798438 0.01845,-0.074031 0.04752,-0.1241684 0.09901,-0.1523425 0.0024,-0.00132 0.0048,-0.00255 0.0071,-0.00372 z m -1.6720935,0.00718 c 0.00769,3.27e-5 0.015818,6.706e-4 0.024483,0.00199 0.058285,0.00883 0.1091113,0.049581 0.1580801,0.1160007 0.048969,0.066421 0.094534,0.1570888 0.1413742,0.2576635 l 6.03e-5,1.306e-4 5.55e-5,1.142e-4 c 0.037641,0.078561 0.1170684,0.1649448 0.1843784,0.2530685 0.06731,0.088124 0.119403,0.17658 0.112619,0.2442829 l -3.1e-5,2.938e-4 -2.1e-5,2.937e-4 c -0.0088,0.1154699 -0.07391,0.1783309 -0.173902,0.2011692 -0.099961,0.022831 -0.2354723,8.16e-5 -0.3708243,-0.070665 -3.93e-5,-1.63e-5 -8e-5,-3.27e-5 -1.192e-4,-6.53e-5 C 9.5180042,3.7187894 9.3398604,3.726667 9.2255866,3.7028003 9.168434,3.6908632 9.1311418,3.6729173 9.1140259,3.6395735 9.0969087,3.606231 9.0965267,3.5480581 9.1328999,3.4488716 l 1.6e-4,-4.374e-4 1.437e-4,-4.423e-4 c 0.017988,-0.055486 0.00468,-0.1161972 -0.00406,-0.173181 -0.00873,-0.056984 -0.013004,-0.1088157 0.00645,-0.1449431 l 8.98e-5,-1.649e-4 8.81e-5,-1.697e-4 c 0.024913,-0.048021 0.061455,-0.065188 0.1068074,-0.081459 0.045353,-0.016272 0.099131,-0.02905 0.1415975,-0.071609 l 2.198e-4,-2.253e-4 2.194e-4,-2.285e-4 c 0.039259,-0.041416 0.068749,-0.09333 0.1032621,-0.1301765 0.02912,-0.031089 0.058263,-0.051693 0.1021883,-0.051999 5.082e-4,0 0.00102,0 0.00153,0 z"
       id="path154" />
  </g>
  <g
     inkscape:groupmode="layer"
     id="layer5"
     inkscape:label="Mac"
     style="display:inline"
     transform="translate(2.1166668)">
    <path
       inkscape:connector-curvature="0"
       d="M 7.3896946,3.8196159 C 7.1887754,4.0146026 6.967101,3.9842048 6.7557955,3.8922415 c -0.2246407,-0.093792 -0.4300137,-0.099725 -0.6672632,0 C 5.7930861,4.0197564 5.636276,3.982691 5.4583432,3.8196159 4.4537384,2.7853571 4.6020172,1.2098713 5.7437794,1.1505632 6.020693,1.1653509 6.2145771,1.3036633 6.3776873,1.3151521 6.6201256,1.2658892 6.8521776,1.1246106 7.1116698,1.1431519 7.4234349,1.1683521 7.6566069,1.2914307 7.812297,1.5127376 7.1709865,1.8982658 7.3229753,2.7434705 7.9120216,2.98072 7.7941318,3.2902539 7.6428868,3.5960778 7.3893271,3.8222059 Z m -1.03425,-2.680174 C 6.3254318,0.67977425 6.6979662,0.30165728 7.1265011,0.26458322 7.1854766,0.79468896 6.6445908,1.1913386 6.3554446,1.1394419 Z"
       id="path2"
       style="fill:#ffffff;fill-opacity:1;stroke-width:0.26458326" />
  </g>
  <g
     inkscape:groupmode="layer"
     id="layer3"
     inkscape:label="Windows 10"
     style="display:inline"
     transform="translate(2.1166668)">
    <path
       style="fill:#ffffff;fill-opacity:1;stroke-width:0.26458332"
       d="M 3.96875,0.25820228 1.9617809,0.55098538 V 2.0318068 H 3.96875 Z M 1.7793818,0.58073608 0.26458338,0.78857651 V 2.0445689 H 1.7793818 Z M 0.26458338,2.1989575 V 3.4548672 L 1.7793818,3.6670168 V 2.1989575 Z M 1.9617809,2.2185153 V 3.6908009 L 3.96875,3.9751311 v -1.756616 z"
       id="path894"
       inkscape:connector-curvature="0" />
  </g>
  <g
     inkscape:label="Windows 11"
     inkscape:groupmode="layer"
     id="layer1"
     transform="translate(2.1166668,-292.76665)"
     style="display:none">
    <path
       style="opacity:1;fill:#ffffff;fill-opacity:1;stroke:none;stroke-width:0.49999997;stroke-linecap:round;stroke-miterlimit:4;stroke-dasharray:none;stroke-opacity:1"
       d="M 1,1 V 7.5996094 H 7.5996094 V 1 Z M 8.4003906,1 V 7.5996094 H 15 V 1 Z M 1,8.4003906 V 15 H 7.5996094 V 8.4003906 Z m 7.4003906,0 V 15 H 15 V 8.4003906 Z"
       transform="matrix(0.26458333,0,0,0.26458333,0,292.76665)"
       id="path845"
       inkscape:connector-curvature="0" />
  </g>
</svg>
