<?xml version="1.0" encoding="UTF-8" standalone="no"?>
<!-- Created with Inkscape (http://www.inkscape.org/) -->

<svg
   xmlns:dc="http://purl.org/dc/elements/1.1/"
   xmlns:cc="http://creativecommons.org/ns#"
   xmlns:rdf="http://www.w3.org/1999/02/22-rdf-syntax-ns#"
   xmlns:svg="http://www.w3.org/2000/svg"
   xmlns="http://www.w3.org/2000/svg"
   xmlns:sodipodi="http://sodipodi.sourceforge.net/DTD/sodipodi-0.dtd"
   xmlns:inkscape="http://www.inkscape.org/namespaces/inkscape"
   width="72"
   height="15.999999"
   viewBox="0 0 19.05 4.2333332"
   version="1.1"
   id="svg8"
   inkscape:version="0.92.4 (5da689c313, 2019-01-14)"
   sodipodi:docname="download-button-logos.svg"
   inkscape:export-filename="/home/poppy/tenacity-webpage/images/download-button-logos/download-button-logos.png"
   inkscape:export-xdpi="192"
   inkscape:export-ydpi="192">
  <defs
     id="defs2" />
  <sodipodi:namedview
     id="base"
     pagecolor="#404040"
     bordercolor="#666666"
     borderopacity="1.0"
     inkscape:pageopacity="0"
     inkscape:pageshadow="2"
     inkscape:zoom="8"
     inkscape:cx="44.153113"
     inkscape:cy="16.856891"
     inkscape:document-units="mm"
     inkscape:current-layer="layer1"
     showgrid="true"
     units="px"
     inkscape:snap-global="true"
     inkscape:snap-bbox="true"
     inkscape:bbox-nodes="true"
     inkscape:snap-nodes="true"
     inkscape:snap-others="true"
     inkscape:window-width="1920"
     inkscape:window-height="1054"
     inkscape:window-x="0"
     inkscape:window-y="0"
     inkscape:window-maximized="1"
     fit-margin-top="0"
     fit-margin-left="0"
     fit-margin-right="0"
     fit-margin-bottom="0"
     inkscape:snap-intersection-paths="true"
     inkscape:bbox-paths="true"
     inkscape:object-paths="true"
     inkscape:snap-bbox-midpoints="true"
     inkscape:snap-bbox-edge-midpoints="true"
     inkscape:snap-smooth-nodes="true"
     inkscape:snap-midpoints="true"
     inkscape:snap-object-midpoints="true"
     inkscape:snap-center="true"
     inkscape:snap-page="true"
     inkscape:snap-text-baseline="true">
    <inkscape:grid
       type="xygrid"
       id="grid815"
       empspacing="16"
       color="#ffffff"
       opacity="0.0627451"
       empcolor="#ffffff"
       empopacity="0.1254902"
       originx="2.1166668"
       originy="-2.2252401e-07" />
    <inkscape:grid
       type="xygrid"
       id="grid2022"
       color="#ffffff"
       opacity="0.03137255"
       empcolor="#ffffff"
       empopacity="0.01568627"
       spacingx="0.13229167"
       spacingy="0.13229167"
       empspacing="2" />
  </sodipodi:namedview>
  <metadata
     id="metadata5">
    <rdf:RDF>
      <cc:Work
         rdf:about="">
        <dc:format>image/svg+xml</dc:format>
        <dc:type
           rdf:resource="http://purl.org/dc/dcmitype/StillImage" />
        <dc:title></dc:title>
      </cc:Work>
    </rdf:RDF>
  </metadata>
  <g
     inkscape:groupmode="layer"
     id="layer6"
     inkscape:label="FreeBSD"
     transform="translate(2.1166668)">
    <path
       inkscape:connector-curvature="0"
       d="m 15.47555,0.79518135 c 0.09178,-0.09178 0.954986,-0.636658 1.150944,-0.439873 0.195958,0.195958 -0.348094,1.05916605 -0.439872,1.15094405 -0.09178,0.09178 -0.32577,0.0074 -0.521728,-0.189343 C 15.468109,1.1209514 15.382946,0.88695835 15.47555,0.79518135 Z m -1.602391,-0.232339 c -0.300138,-0.170326 -0.726781,-0.35967 -0.862381,-0.223243 -0.137253,0.137253 0.05871,0.573818 0.230685,0.87395605 0.152963,-0.26623805 0.370418,-0.49030805 0.631696,-0.65071305 z m 2.454024,0.87561005 c 0.02728,0.09343 0.02232,0.171154 -0.02233,0.215802 -0.167846,0.167846 -0.723474,-0.223243 -0.903722,-0.579606 -0.148829,-0.26706505 -0.09178,-0.44152605 0.123197,-0.40266505 0.04713,-0.02977 0.1017,-0.06284 0.162058,-0.09591 -0.246394,-0.128158 -0.525862,-0.200919 -0.822693,-0.200919 -0.984751,0 -1.78264,0.79788905 -1.78264,1.78264005 0,0.983925 0.797889,1.78264 1.78264,1.78264 0.984752,0 1.78264,-0.797888 1.78264,-1.78264 0,-0.317502 -0.08351,-0.615986 -0.229031,-0.874783 -0.03225,0.05788 -0.06284,0.109968 -0.09012,0.155443 z"
       id="path2-3"
       style="fill:#ffffff;fill-opacity:1;stroke-width:0.26458329" />
  </g>
  <g
     inkscape:groupmode="layer"
     id="layer2"
     inkscape:label="Linux.org"
     style="display:inline">
    <path
       style="fill:#ffffff;fill-opacity:1;stroke-width:0.99999994"
       d="M 11.957968,3.8221713 C 11.611109,3.6604677 11.238763,3.3090856 11.057857,2.9727349 L 10.939639,2.75294 11.149798,2.3456365 c 0.248253,-0.4811299 0.822959,-1.1045047 1.018275,-1.1045047 0.163898,0 0.168056,0.1035869 0.01217,0.3031325 -0.209018,0.2675541 -0.158939,0.4415416 0.225954,0.7850277 0.190879,0.1703442 0.421124,0.4201424 0.511654,0.5551098 0.17577,0.2620477 0.269029,0.6831824 0.206515,0.9325724 -0.03607,0.1439109 -0.06075,0.1523111 -0.445743,0.151752 -0.302576,-4.582e-4 -0.488204,-0.03819 -0.720651,-0.1465549 z m 1.466103,-0.2429265 c 0.02924,-0.1952424 0.0048,-0.3834686 -0.08922,-0.6877099 C 13.234027,2.5653531 13.219152,2.436348 13.267641,2.3086534 13.343241,2.109573 13.649857,1.968877 14.00992,1.9680568 L 14.2692,1.9673693 13.966452,1.8250534 C 13.792889,1.7434639 13.578563,1.575622 13.464174,1.431709 12.856534,0.66724639 11.99189,0.87769909 11.171282,1.9897929 c -0.29369,0.398012 -0.367768,0.3664688 -0.300108,-0.1277885 0.08332,-0.6086572 0.509493,-1.17470371 1.087196,-1.44402681 0.435302,-0.2029369 1.094961,-0.2047196 1.523686,-0.00412 1.313828,0.61473171 1.447043,2.45996911 0.236955,3.28219761 -0.122969,0.083556 -0.248694,0.1519168 -0.27939,0.1519168 -0.03171,0 -0.03842,-0.1160861 -0.01555,-0.2688187 z M 12.935988,1.5424472 c -0.02355,-0.038156 -0.01539,-0.096839 0.01813,-0.1304052 0.08602,-0.086126 0.285738,-0.035503 0.285738,0.072426 0,0.1089945 -0.243679,0.1554914 -0.303868,0.057979 z"
       id="path826"
       inkscape:connector-curvature="0"
       sodipodi:nodetypes="csccscsscccccsccccccssccsccccscc" />
  </g>
  <g
     inkscape:groupmode="layer"
     id="layer5"
     inkscape:label="Mac"
     style="display:inline"
     transform="translate(2.1166668)">
    <path
       inkscape:connector-curvature="0"
       d="M 7.3896946,3.8196159 C 7.1887754,4.0146026 6.967101,3.9842048 6.7557955,3.8922415 c -0.2246407,-0.093792 -0.4300137,-0.099725 -0.6672632,0 C 5.7930861,4.0197564 5.636276,3.982691 5.4583432,3.8196159 4.4537384,2.7853571 4.6020172,1.2098713 5.7437794,1.1505632 6.020693,1.1653509 6.2145771,1.3036633 6.3776873,1.3151521 6.6201256,1.2658892 6.8521776,1.1246106 7.1116698,1.1431519 7.4234349,1.1683521 7.6566069,1.2914307 7.812297,1.5127376 7.1709865,1.8982658 7.3229753,2.7434705 7.9120216,2.98072 7.7941318,3.2902539 7.6428868,3.5960778 7.3893271,3.8222059 Z m -1.03425,-2.680174 C 6.3254318,0.67977425 6.6979662,0.30165728 7.1265011,0.26458322 7.1854766,0.79468896 6.6445908,1.1913386 6.3554446,1.1394419 Z"
       id="path2"
       style="fill:#ffffff;fill-opacity:1;stroke-width:0.26458326" />
  </g>
  <g
     inkscape:groupmode="layer"
     id="layer3"
     inkscape:label="Windows 10"
     style="display:inline"
     transform="translate(2.1166668)">
    <path
       style="fill:#ffffff;fill-opacity:1;stroke-width:0.26458332"
       d="M 3.96875,0.25820228 1.9617809,0.55098538 V 2.0318068 H 3.96875 Z M 1.7793818,0.58073608 0.26458338,0.78857651 V 2.0445689 H 1.7793818 Z M 0.26458338,2.1989575 V 3.4548672 L 1.7793818,3.6670168 V 2.1989575 Z M 1.9617809,2.2185153 V 3.6908009 L 3.96875,3.9751311 v -1.756616 z"
       id="path894"
       inkscape:connector-curvature="0" />
  </g>
  <g
     inkscape:label="Windows 11"
     inkscape:groupmode="layer"
     id="layer1"
     transform="translate(2.1166668,-292.76665)"
     style="display:none">
    <path
       style="opacity:1;fill:#ffffff;fill-opacity:1;stroke:none;stroke-width:0.49999997;stroke-linecap:round;stroke-miterlimit:4;stroke-dasharray:none;stroke-opacity:1"
       d="M 1,1 V 7.4999989 H 7.5 V 0.99999868 Z m 7.5,-1.32e-6 V 7.4999989 H 15 V 1 Z M 1,8.499999 V 15 H 7.5 V 8.499999 Z m 7.5,0 V 15 H 15 V 8.499999 Z"
       transform="matrix(0.26458333,0,0,0.26458333,0,292.76665)"
       id="path845"
       inkscape:connector-curvature="0"
       sodipodi:nodetypes="cccccccccccccccscccs" />
  </g>
</svg>
