<?xml version="1.0" encoding="UTF-8"?>
<!-- Created with Inkscape (http://www.inkscape.org/) -->
<svg width="72" height="16" version="1.1" viewBox="0 0 19.05 4.2333" xmlns="http://www.w3.org/2000/svg" xmlns:cc="http://creativecommons.org/ns#" xmlns:dc="http://purl.org/dc/elements/1.1/" xmlns:rdf="http://www.w3.org/1999/02/22-rdf-syntax-ns#">
 <metadata>
  <rdf:RDF>
   <cc:Work rdf:about="">
    <dc:format>image/svg+xml</dc:format>
    <dc:type rdf:resource="http://purl.org/dc/dcmitype/StillImage"/>
   </cc:Work>
  </rdf:RDF>
 </metadata>
 <g transform="translate(2.1167)">
  <path d="m15.476 0.79518c0.09178-0.09178 0.95499-0.63666 1.1509-0.43987 0.19596 0.19596-0.34809 1.0592-0.43987 1.1509-0.09178 0.09178-0.32577 0.0074-0.52173-0.18934-0.19678-0.19596-0.28195-0.42995-0.18934-0.52173zm-1.6024-0.23234c-0.30014-0.17033-0.72678-0.35967-0.86238-0.22324-0.13725 0.13725 0.05871 0.57382 0.23068 0.87396 0.15296-0.26624 0.37042-0.49031 0.6317-0.65071zm2.454 0.87561c0.02728 0.09343 0.02232 0.17115-0.02233 0.2158-0.16785 0.16785-0.72347-0.22324-0.90372-0.57961-0.14883-0.26707-0.09178-0.44153 0.1232-0.40267 0.04713-0.02977 0.1017-0.06284 0.16206-0.09591-0.24639-0.12816-0.52586-0.20092-0.82269-0.20092-0.98475 0-1.7826 0.79789-1.7826 1.7826 0 0.98392 0.79789 1.7826 1.7826 1.7826 0.98475 0 1.7826-0.79789 1.7826-1.7826 0-0.3175-0.08351-0.61599-0.22903-0.87478-0.03225 0.05788-0.06284 0.10997-0.09012 0.15544z" fill="#fff" stroke-width=".26458"/>
 </g>
 <g transform="translate(2.1167)" fill="#fff">
  <path d="m7.3897 3.8196c-0.20092 0.19499-0.42259 0.16459-0.6339 0.072626-0.22464-0.093792-0.43001-0.099725-0.66726 0-0.29545 0.12751-0.45226 0.09045-0.63019-0.072626-1.0046-1.0343-0.85633-2.6097 0.28544-2.6691 0.27691 0.014788 0.4708 0.1531 0.63391 0.16459 0.24244-0.049263 0.47449-0.19054 0.73398-0.172 0.31177 0.0252 0.54494 0.14828 0.70063 0.36959-0.64131 0.38553-0.48932 1.2307 0.099725 1.468-0.11789 0.30953-0.26913 0.61536-0.52269 0.84149zm-1.0342-2.6802c-0.030013-0.45967 0.34252-0.83778 0.77106-0.87486 0.058976 0.53011-0.48191 0.92676-0.77106 0.87486z" stroke-width=".26458"/>
  <path d="m10.242 2.0251c-0.0085 0.00246-0.01675 0.00505-0.02492 0.00783-0.0463 0.015994-0.08306 0.033646-0.11859 0.057133 0.0034-0.024582 4e-3 -0.049499 0.0013-0.077363-2.52e-4 -0.00151-2.52e-4 -0.00277-2.52e-4 -0.00429-0.0037-0.036956-0.01153-0.067935-0.02458-0.09925-0.01389-0.032579-0.02946-0.05556-0.04992-0.073238-0.01852-0.015995-0.03603-0.023402-0.05539-0.023233-0.0019 0-4e-3 8.32e-5 -6e-3 2.534e-4 -0.02172 0.00186-0.03973 0.012459-0.05682 0.033253-0.01701 0.020709-0.0282 0.046468-0.03628 0.080646-0.0081 0.034095-0.01018 0.067598-0.0068 0.10607 0 0.00151 3.36e-4 0.00277 3.36e-4 0.00429 0.0037 0.037292 0.0112 0.068271 0.0245 0.099587 0.01364 0.032242 0.02946 0.055223 0.04992 0.072902 0.0034 0.00295 0.0068 0.00564 0.01019 8e-3 -0.02121 0.016416-0.03547 0.028061-0.05298 0.040855-0.0112 0.00817-0.0245 0.017929-0.03999 0.029381-0.03376-0.031652-0.06011-0.071386-0.08317-0.12383-0.02727-0.061958-0.04184-0.124-0.04622-0.19724v-5.968e-4c-4e-3 -0.073238 0.0031-0.13621 0.02323-0.20136 0.0202-0.065157 0.04714-0.1123 0.08629-0.15102 0.03906-0.038808 0.07846-0.058338 0.12594-0.060779 0.0037-1.685e-4 0.0073-2.524e-4 0.01094-2.524e-4 0.04302 8.43e-5 0.0814 0.014394 0.12114 0.046131 0.0431 0.034429 0.07568 0.078457 0.10295 0.1405 0.02736 0.062042 0.04192 0.12408 0.04596 0.19732v5.968e-4c0.0019 0.030725 0.0017 0.059685-7.73e-4 0.087718zm0.97718-0.084602c6.67e-4 0.084939-0.01398 0.15725-0.04622 0.23108-0.01835 0.042091-0.03947 0.077447-0.06481 0.10809-0.0086-0.00413-0.01751-0.00808-0.02678-0.011869-0.03207-0.013723-0.06044-0.025003-0.08586-0.034597-0.02543-0.0096-0.04527-0.016153-0.06574-0.023227 0.01483-0.017932 0.04403-0.039061 0.05489-0.065578 0.0165-0.039986 0.02458-0.079047 0.0261-0.1256 0-0.00186 5.97e-4 -0.00344 5.97e-4 -0.00564 9.12e-4 -0.044616-5e-3 -0.082751-0.01802-0.12181-0.01364-0.040997-0.03099-0.07046-0.05607-0.094957-0.02517-0.024497-0.05026-0.035609-0.08039-0.036619-0.0014-8.43e-5 -0.0028-8.43e-5 -0.0042-8.43e-5 -0.02829 8.43e-5 -0.05287 0.00985-0.0783 0.031062-0.02668 0.022307-0.04647 0.050846-0.06296 0.09058-0.01642 0.039734-0.0245 0.079131-0.0261 0.12594-2.46e-4 0.00186-2.46e-4 0.00344-2.46e-4 0.0053-5.97e-4 0.025761 0.0011 0.049331 0.0051 0.072228-0.05791-0.028875-0.13201-0.049929-0.1832-0.062135-0.0029-0.022142-0.0046-0.044953-0.0051-0.068861v-0.00648c-9.12e-4 -0.084687 0.01297-0.15734 0.04554-0.23108 0.03258-0.073828 0.0729-0.12686 0.12963-0.17005 0.05682-0.043101 0.11264-0.062884 0.17872-0.063558h0.0031c0.06465 0 0.11996 0.019024 0.17678 0.06019 0.05766 0.041922 0.09925 0.094283 0.13275 0.16752 0.03283 0.071386 0.04866 0.14117 0.05026 0.22392-8e-6 0.00218-8e-6 0.00404 5.97e-4 0.00623zm-0.01684 0.72894c-0.0633 0.090243-0.1745 0.16768-0.3145 0.21146-8.3e-5 0-1.62e-4 1.69e-5 -2.49e-4 9.87e-5 -0.06626 0.021552-0.13612 0.076926-0.22359 0.12693-0.08048 0.046047-0.17712 0.086467-0.30103 0.086467-0.01103 0-0.02232-3.444e-4 -0.03385-0.00102-0.12021-0.00699-0.19975-0.051184-0.26348-0.10237-0.06356-0.051099-0.11264-0.10732-0.17797-0.14579-8.4e-5 0-8.4e-5 -1.68e-5 -1.64e-4 -9.83e-5 -0.02231-0.012712-0.0724-0.046545-0.08704-0.057152-0.01446 0.27272-0.11478 0.58061-0.23196 0.86836a1.852 1.852 0 0 0 1.015 0.30429 1.852 1.852 0 0 0 0.98032-0.28255c-0.13749-0.31335-0.28502-0.7072-0.3615-1.0086zm-0.61882-2.4044a1.852 1.852 0 0 0-1.852 1.852 1.852 1.852 0 0 0 1.852 1.852 1.852 1.852 0 0 0 1.852-1.852 1.852 1.852 0 0 0-1.852-1.852zm0.1208 0.20204c1.1408 0.00161 1.0767 1.2038 1.0695 1.8521-0.0037 0.33944 0.14701 0.59097 0.32971 0.83304a1.852 1.852 0 0 1-1.52 0.80001 1.852 1.852 0 0 1-0.98531-0.28528 1.852 1.852 0 0 1-0.11167-0.080351 1.852 1.852 0 0 1-0.08398-0.062873 1.852 1.852 0 0 1-0.17458-0.16657c0.01961-0.024034 0.03982-0.049298 0.05847-0.071472 0.22687-0.32242 0.29371-0.58236 0.31703-0.91219 0.01894-0.45096-0.31922-1.7979 0.95563-1.9005 0.05043-0.00404 0.09883-0.00597 0.14521-0.00589zm-0.33347 1.5888c-0.05228 1.667e-4 -0.099 0.00943-0.14084 0.023907-0.12164 0.041838-0.20238 0.12913-0.25297 0.17703l-8.5e-5 8.32e-5c0 8.32e-5 -8.4e-5 9.45e-5 -8.4e-5 1.819e-4 -0.0099 0.00943-0.02272 0.018013-0.0537 0.040742-0.03123 0.022812-0.07805 0.057152-0.14539 0.10766-0.05985 0.044869-0.07929 0.10329-0.05858 0.17173 0.02062 0.06844 0.08661 0.1474 0.20733 0.21567l1.81e-4 1.819e-4 2.47e-4 8.32e-5c0.07492 0.044027 0.12611 0.10336 0.18487 0.15059 0.02938 0.02357 0.06026 0.044628 0.09747 0.060538s0.08065 0.026677 0.13504 0.029876c0.12762 0.00741 0.22157-0.030883 0.30448-0.078362 0.08309-0.047394 0.15346-0.1054 0.2342-0.13158l1.67e-4 -8.32e-5 1.82e-4 -8.32e-5c0.16549-0.051688 0.28352-0.15582 0.32047-0.25473 0.01852-0.049499 0.01793-0.096484-0.0041-0.13984-0.02214-0.043353-0.06733-0.084593-0.14428-0.11616l-1.82e-4 -8.32e-5 -2.5e-4 -9.86e-5c-0.16003-0.068526-0.22947-0.073401-0.31879-0.13149-0.14538-0.093442-0.26551-0.12618-0.36535-0.12576zm-0.1218 0.12132c0.01189-7.58e-5 0.02344 0.00211 0.03341 0.00766 0.0052 0.00291 0.01092 0.00972 0.0091 0.015422-0.0054 0.01748-0.03361 0.014569-0.04988 0.022953-0.01428 0.00735-0.02577 0.023476-0.04183 0.023939-0.01532 4.564e-4 -0.03918-0.0053-0.04117-0.020502-0.0026-0.020081 0.02669-0.032842 0.04556-0.0402 0.01366-0.00533 0.02949-0.00918 0.04477-0.00927zm0.25149 0c0.01528 9.44e-5 0.03109 0.00395 0.04475 0.00927 0.01887 0.00736 0.04819 0.020116 0.04556 0.0402-2e-3 0.015201-0.02585 0.020944-0.04117 0.020502-0.01606-4.564e-4 -0.02753-0.016584-0.04181-0.023939-0.01628-0.00838-0.04445-0.00547-0.0499-0.022953-0.0018-0.0057 0.0039-0.012519 0.0091-0.015422 0.01-0.00554 0.02154-0.00774 0.03342-0.00766zm0.52984 0.26142c0.0021-6.81e-5 0.0044 3.51e-5 0.0068 3.103e-4 0.03879 0.00452 0.01009 0.045964-0.04423 0.093373s-0.13931 0.11032-0.20833 0.1463c-0.13167 0.068631-0.28547 0.15186-0.44912 0.15186-0.16357 0-0.29277-0.075599-0.38571-0.14926-0.04647-0.036787-0.08419-0.073397-0.11264-0.099999-0.04937-0.038968-0.04345-0.093622-0.02317-0.092008 0.034 0.00424 0.03913 0.049001 0.06054 0.069023 0.02896 0.027106 0.06525 0.062204 0.10919 0.097056 0.08788 0.069618 0.20506 0.13739 0.35179 0.13739 0.14648 0 0.31748-0.085992 0.42185-0.14454 0.05913-0.033169 0.13437-0.092626 0.19577-0.1377 0.04404-0.03233 0.0453-0.070838 0.07724-0.071801z" stroke-width=".0084182"/>
  <path d="m3.9688 0.2582-2.007 0.29278v1.4808h2.007zm-2.1894 0.32253-1.5148 0.20784v1.256h1.5148zm-1.5148 1.6182v1.2559l1.5148 0.21215v-1.4681zm1.6972 0.019558v1.4723l2.007 0.28433v-1.7566z" stroke-width=".26458"/>
 </g>
 <g transform="translate(2.1167 -292.77)" display="none">
  <path transform="matrix(.26458 0 0 .26458 0 292.77)" d="m1 1v6.5h6.5v-6.5zm7.5-1.32e-6v6.5h6.5v-6.5zm-7.5 7.5v6.5h6.5v-6.5zm7.5 0v6.5h6.5v-6.5z" fill="#fff"/>
 </g>
</svg>
