<?xml version="1.0" encoding="UTF-8" standalone="no"?>
<svg
   xmlns:dc="http://purl.org/dc/elements/1.1/"
   xmlns:cc="http://creativecommons.org/ns#"
   xmlns:rdf="http://www.w3.org/1999/02/22-rdf-syntax-ns#"
   xmlns:svg="http://www.w3.org/2000/svg"
   xmlns="http://www.w3.org/2000/svg"
   xmlns:xlink="http://www.w3.org/1999/xlink"
   id="svg28"
   viewBox="0 0 107.92 25.84"
   version="1.1"
   height="17"
   width="71">
  <defs
     id="defs32">
    <linearGradient
       id="linearGradient870">
      <stop
         id="stop866"
         offset="0"
         style="stop-color:#ca153e;stop-opacity:1" />
      <stop
         id="stop868"
         offset="1"
         style="stop-color:#e93c17;stop-opacity:0.97402596" />
    </linearGradient>
    <linearGradient
       gradientUnits="userSpaceOnUse"
       y2="0.00195276"
       x2="70.355469"
       y1="16.116116"
       x1="1.4486842e-07"
       id="linearGradient872"
       xlink:href="#linearGradient870" />
    <linearGradient
       xlink:href="#linearGradient870"
       id="linearGradient866"
       x1="0.082176067"
       y1="15.849537"
       x2="16.013672"
       y2="0.00195276"
       gradientUnits="userSpaceOnUse" />
    <linearGradient
       xlink:href="#linearGradient870"
       id="linearGradient877"
       gradientUnits="userSpaceOnUse"
       x1="18.489584"
       y1="16.17824"
       x2="70.355469"
       y2="2.7148438" />
  </defs>
  <metadata
     id="metadata2">
    <rdf:RDF>
      <cc:Work
         rdf:about="">
        <dc:format>image/svg+xml</dc:format>
        <dc:type
           rdf:resource="http://purl.org/dc/dcmitype/StillImage" />
        <dc:title></dc:title>
        <cc:license
           rdf:resource="http://creativecommons.org/licenses/by/4.0/" />
      </cc:Work>
      <cc:License
         rdf:about="http://creativecommons.org/licenses/by/4.0/">
        <cc:permits
           rdf:resource="http://creativecommons.org/ns#Reproduction" />
        <cc:permits
           rdf:resource="http://creativecommons.org/ns#Distribution" />
        <cc:requires
           rdf:resource="http://creativecommons.org/ns#Notice" />
        <cc:requires
           rdf:resource="http://creativecommons.org/ns#Attribution" />
        <cc:permits
           rdf:resource="http://creativecommons.org/ns#DerivativeWorks" />
      </cc:License>
    </rdf:RDF>
  </metadata>
  <g
     id="g857">
    <g
       transform="translate(-13.229,39.574)"
       id="g26"
       style="fill:#ffffff">
      <g
         transform="matrix(1.0337,0,0,1.0337,-0.6338,-107.91)"
         id="g6">
        <path
           style="fill:url(#linearGradient866);fill-opacity:1;stroke-width:0.04328755;paint-order:markers fill stroke"
           d="M 2.0019531,0.00195313 C 0.90167468,0.00195313 0,0.90355995 0,2.0039062 V 14.013672 c 0,0.461023 0.15899691,0.887074 0.42382812,1.226562 0.36724238,0.47081 0.93886318,0.775391 1.57812498,0.775391 H 14.011719 c 1.100278,0 2.001953,-0.901607 2.001953,-2.001953 V 2.0039062 c 0,-0.4428996 -0.146197,-0.8528586 -0.392578,-1.18554682 v -0.001953 c -0.002,-0.002652 -0.0035,-0.005174 -0.0059,-0.007813 -0.0065,-0.008705 -0.01272,-0.0170734 -0.01953,-0.0253906 -0.0046,-0.005645 -0.0091,-0.0119064 -0.01367,-0.0175781 -0.01362,-0.0174029 -0.0287,-0.0339835 -0.04297,-0.0507813 -0.36807,-0.4350646 -0.916848,-0.71289062 -1.527343,-0.71289062 z m 0,0.99999997 H 14.011719 c 0.563135,0 1.001953,0.4388451 1.001953,1.0019531 V 7.0078125 H 12.009766 V 5.0058594 H 10.007812 V 2.0039062 H 8.0078125 V 6.0058594 H 6.0058594 V 4.0039062 H 4.0039062 V 7.0078125 H 1 V 2.0039062 C 1,1.440771 1.438845,1.0019531 2.0019531,1.0019531 Z M 1,9.0097656 h 3.0039062 v 3.0019534 h 2.0019532 v -2.001953 h 2.0019531 v 4.003906 h 1.9999995 v -3.001953 h 2.001954 V 9.0097656 h 3.003906 v 5.0039064 c 0,0.563135 -0.438845,1 -1.001953,1 H 2.0019531 C 1.4388178,15.013672 1,14.576773 1,14.013672 Z"
           transform="matrix(1.470446,0,0,1.470446,13.410854,66.108155)"
           id="path853" />
        <path
           style="fill:url(#linearGradient877);fill-opacity:1;stroke-width:0.04328755;paint-order:markers fill stroke"
           d="M 54.710938,2.7148438 V 4.421875 h 1.373046 V 2.7148438 Z m -35.375,0.8027343 v 2.1621094 h -0.917969 v 1.0957031 h 0.917969 v 4.0722654 c 0,0.959737 0.18418,1.634244 0.570312,2.015625 0.386283,0.376744 1.067924,0.554688 2.041016,0.554688 h 1.347656 v -1.169922 h -1.347656 c -0.513829,0 -0.845041,-0.09162 -0.996094,-0.246094 -0.142928,-0.15123 -0.234375,-0.539356 -0.234375,-1.154297 V 6.7753906 h 2.578125 V 5.6796875 H 20.716797 V 3.5175781 h -0.06055 z m 38.875,0 v 2.1621094 h -0.917969 v 1.0957031 h 0.917969 v 4.0722654 c 0,0.959737 0.184174,1.634244 0.570312,2.015625 0.386283,0.376744 1.067924,0.554688 2.041016,0.554688 h 1.345703 v -1.169922 h -1.345703 c -0.513836,0 -0.845041,-0.09162 -0.996094,-0.246094 h -0.002 c -0.14286,-0.151276 -0.234328,-0.539382 -0.234328,-1.154297 V 6.7753906 h 2.578125 V 5.6796875 H 59.589844 V 3.5175781 h -0.06055 z M 27.71875,5.4960938 c -1.154449,4.4e-4 -2.084849,0.3745791 -2.771484,1.1210937 -0.682566,0.7425658 -1.021485,1.7483594 -1.021485,3.0058594 0,1.2176971 0.358737,2.1927011 1.078125,2.9121091 v 0.002 c 0.723948,0.719342 1.706949,1.078125 2.933594,1.078125 0.489211,0 0.971674,-0.05174 1.447266,-0.152343 0.475283,-0.10054 0.938322,-0.245612 1.390625,-0.4375 l 0.03906,-0.01563 v -1.326172 l -0.08984,0.04883 c -0.440368,0.233664 -0.885563,0.408805 -1.333984,0.52539 -0.443605,0.116505 -0.90338,0.173829 -1.378906,0.173829 -0.818158,0 -1.448462,-0.220402 -1.902344,-0.65625 -0.435934,-0.42777 -0.68072,-1.053241 -0.744141,-1.8671879 h 5.740235 v -0.671875 c 0,-1.1439473 -0.303944,-2.0564309 -0.914063,-2.7265625 C 29.586385,5.8355137 28.75712,5.4965371 27.720703,5.4960938 Z m 8.214844,0 c -0.53904,0 -1.017784,0.1155575 -1.435547,0.3476562 h -0.002 C 34.12982,6.0495987 33.813466,6.3629663 33.533203,6.7519531 V 5.6796875 h -1.378906 v 7.7382815 h 1.378906 V 9.0527344 c 0,-0.7327632 0.192174,-1.3030055 0.570313,-1.7207032 0.378092,-0.4176578 0.888347,-0.6249996 1.550781,-0.625 0.549158,0 0.949868,0.1710864 1.21875,0.5136719 0.268789,0.3424934 0.408203,0.8672492 0.408203,1.5800781 v 4.6171878 h 1.373047 V 8.7597656 c 0,-1.0603289 -0.226283,-1.8713733 -0.6875,-2.4257812 -0.461119,-0.558954 -1.145703,-0.8378906 -2.033203,-0.8378906 z m 6.990234,0 c -0.412487,0 -0.835123,0.045265 -1.269531,0.1367187 C 41.22006,5.7197007 40.773026,5.8534342 40.3125,6.03125 l -0.03906,0.015625 v 1.2988281 l 0.08984,-0.048828 c 0.376395,-0.2061184 0.768282,-0.3599038 1.175781,-0.4628906 0.407576,-0.1030132 0.825531,-0.1542969 1.25586,-0.1542969 0.675066,0 1.190432,0.1553651 1.552734,0.4609375 0.366606,0.3011447 0.548828,0.7229194 0.548828,1.2851562 v 0.0625 h -1.693359 c -1.145526,0 -2.016369,0.2192196 -2.607422,0.6660157 -0.586493,0.4468487 -0.880859,1.114112 -0.880859,1.984375 0,0.747039 0.236959,1.355193 0.707031,1.80664 0.474816,0.446885 1.11331,0.669922 1.904297,0.669922 0.623658,0 1.155086,-0.110984 1.591797,-0.333984 0.386355,-0.201395 0.706542,-0.516374 0.978515,-0.908203 v 1.044922 H 46.26953 V 9.0117188 c 0,-1.1700003 -0.27384,-2.0545066 -0.832031,-2.640625 -0.558178,-0.5860332 -1.401635,-0.8750001 -2.513671,-0.875 z m 8.101563,0 c -1.199803,0 -2.154918,0.3615493 -2.851563,1.0859374 -0.692171,0.7244738 -1.037109,1.7194984 -1.037109,2.9726563 0,1.2351315 0.342086,2.2256945 1.029297,2.9589845 0.687171,0.733289 1.617672,1.101562 2.777343,1.101562 0.425264,0 0.826875,-0.04247 1.203125,-0.125 0.380645,-0.08255 0.748405,-0.206001 1.101563,-0.371093 l 0.03516,-0.01563 v -1.298828 l -0.08984,0.05078 c -0.349539,0.192691 -0.701727,0.337185 -1.054687,0.435547 -0.348526,0.09383 -0.701291,0.140625 -1.058594,0.140625 -0.798618,0 -1.406974,-0.249534 -1.84375,-0.748047 -0.436914,-0.503112 -0.658203,-1.209433 -0.658203,-2.1289065 0,-0.9194737 0.22144,-1.6226069 0.658203,-2.1210937 0.436849,-0.5030396 1.045263,-0.7539063 1.84375,-0.7539063 0.357059,0 0.710239,0.048234 1.058594,0.1464844 0.352941,0.093822 0.705016,0.2369375 1.054687,0.4296875 l 0.08984,0.050781 v -1.3125 l -0.03516,-0.015625 C 52.899468,5.8179955 52.539613,5.6971406 52.167969,5.6191406 v 0.00195 c -0.371612,-0.082612 -0.752973,-0.125 -1.142578,-0.125 z m 3.685547,0.1835937 v 7.7382815 h 1.373046 V 5.6796875 Z m 8.052734,0 3.105469,7.5546875 -0.214844,0.548828 c -0.229849,0.603921 -0.443957,0.985971 -0.615235,1.132813 -0.176598,0.151375 -0.428777,0.228515 -0.763671,0.228515 h -0.794922 v 1.169922 h 1.060547 c 0.572085,0 1.03641,-0.142549 1.384765,-0.429687 0.352553,-0.290619 0.69565,-0.888105 1.050781,-1.798828 L 70.355469,5.6796875 H 68.898438 L 66.560547,11.533203 64.220703,5.6796875 Z m -35.03125,1 c 0.603053,0 1.077105,0.1962179 1.4375,0.5917969 0.352388,0.3821052 0.532267,0.894301 0.552734,1.5351562 l -4.3125,0.00781 C 25.482266,8.1455058 25.705322,7.623049 26.095703,7.2539037 26.504973,6.871259 27.04604,6.679685 27.732422,6.679685 Z m 15.980469,2.9101563 h 1.183593 v 0.2167968 c 0,0.8054604 -0.206365,1.4442684 -0.617187,1.9257814 -0.40623,0.476875 -0.941883,0.71289 -1.621094,0.71289 -0.492085,0 -0.872652,-0.124692 -1.154297,-0.371093 -0.27746,-0.251448 -0.416015,-0.584645 -0.416015,-1.015625 0,-0.543362 0.183332,-0.910596 0.554687,-1.1308596 0.369967,-0.2194013 1.064063,-0.3378907 2.070313,-0.3378906 z"
           transform="matrix(1.470446,0,0,1.470446,13.410854,66.108155)"
           id="path849" />
      </g>
      <g
         transform="translate(0,-52.803)"
         id="g24" />
    </g>
  </g>
</svg>
